<svg width="24" height="25" viewBox="0 0 24 25" fill="none" xmlns="http://www.w3.org/2000/svg">
<path d="M10.9608 21.5C10.7281 21.5 10.5264 21.4237 10.3558 21.271C10.1844 21.1183 10.0781 20.928 10.0368 20.7L9.77375 18.608C9.45442 18.5113 9.10909 18.36 8.73775 18.154C8.36709 17.9473 8.05142 17.726 7.79075 17.49L5.87575 18.314C5.66442 18.4073 5.44975 18.4173 5.23175 18.344C5.01375 18.2707 4.84575 18.1323 4.72775 17.929L3.64875 16.07C3.53075 15.8667 3.49609 15.654 3.54475 15.432C3.59342 15.21 3.70942 15.028 3.89275 14.886L5.56475 13.636C5.53475 13.4547 5.51042 13.2683 5.49175 13.077C5.47175 12.885 5.46175 12.6987 5.46175 12.518C5.46175 12.35 5.47175 12.1733 5.49175 11.988C5.51042 11.8027 5.53475 11.594 5.56475 11.362L3.89275 10.112C3.70942 9.97 3.59675 9.785 3.55475 9.557C3.51275 9.329 3.55042 9.113 3.66775 8.909L4.72775 7.109C4.84575 6.91767 5.01375 6.78234 5.23175 6.703C5.44975 6.62367 5.66442 6.63067 5.87575 6.724L7.77175 7.528C8.07042 7.27934 8.39375 7.055 8.74175 6.855C9.08842 6.655 9.42609 6.50034 9.75475 6.391L10.0378 4.299C10.0784 4.071 10.1844 3.88067 10.3558 3.728C10.5271 3.57534 10.7288 3.49934 10.9608 3.5H13.0408C13.2734 3.5 13.4751 3.57634 13.6458 3.729C13.8171 3.88167 13.9234 4.072 13.9648 4.3L14.2278 6.412C14.6111 6.54667 14.9498 6.701 15.2438 6.875C15.5378 7.049 15.8408 7.267 16.1528 7.529L18.1448 6.725C18.3568 6.63167 18.5718 6.62467 18.7898 6.704C19.0078 6.78334 19.1754 6.91867 19.2928 7.11L20.3528 8.929C20.4708 9.133 20.5054 9.34567 20.4568 9.567C20.4081 9.78834 20.2921 9.97067 20.1088 10.114L18.3608 11.42C18.4154 11.6267 18.4461 11.8163 18.4528 11.989C18.4594 12.1617 18.4628 12.3317 18.4628 12.499C18.4628 12.6543 18.4561 12.818 18.4428 12.99C18.4301 13.1627 18.4008 13.3713 18.3548 13.616L20.0448 14.886C20.2281 15.028 20.3474 15.21 20.4028 15.432C20.4581 15.654 20.4268 15.8667 20.3088 16.07L19.2428 17.909C19.1254 18.113 18.9544 18.2513 18.7298 18.324C18.5051 18.3973 18.2871 18.3873 18.0758 18.294L16.1528 17.47C15.8414 17.732 15.5281 17.9563 15.2128 18.143C14.8974 18.3297 14.5691 18.478 14.2278 18.588L13.9638 20.699C13.9231 20.927 13.8171 21.1173 13.6458 21.27C13.4744 21.4227 13.2728 21.4993 13.0408 21.5H10.9608ZM11.9738 15C12.6711 15 13.2621 14.7577 13.7468 14.273C14.2314 13.7883 14.4738 13.1973 14.4738 12.5C14.4738 11.8027 14.2314 11.2117 13.7468 10.727C13.2621 10.2423 12.6711 10 11.9738 10C11.2724 10 10.6804 10.2423 10.1978 10.727C9.71509 11.2117 9.47375 11.8027 9.47375 12.5C9.47375 13.1973 9.71509 13.7883 10.1978 14.273C10.6804 14.7577 11.2724 15 11.9738 15Z" fill="#74C5B5"/>
</svg>
