<svg width="18" height="18" viewBox="0 0 18 18" fill="none" xmlns="http://www.w3.org/2000/svg">
<circle cx="9" cy="9" r="8.8" fill="#F2F4FF" stroke="#F69230" stroke-width="0.4"/>
<path d="M5 13V12.1579H9.05V7.45263C8.855 7.38947 8.68625 7.29123 8.54375 7.1579C8.40125 7.02456 8.29625 6.86667 8.22875 6.68421H6.8L8.15 9.63158C8.15 9.98246 7.99625 10.2807 7.68875 10.5263C7.38125 10.7719 7.01 10.8947 6.575 10.8947C6.14 10.8947 5.76875 10.7719 5.46125 10.5263C5.15375 10.2807 5 9.98246 5 9.63158L6.35 6.68421H5.45V5.84211H8.22875C8.31875 5.59649 8.48 5.39481 8.7125 5.23705C8.945 5.0793 9.2075 5.00028 9.5 5C9.7925 4.99972 10.055 5.07874 10.2875 5.23705C10.52 5.39537 10.6812 5.59705 10.7712 5.84211H13.55V6.68421H12.65L14 9.63158C14 9.98246 13.8462 10.2807 13.5387 10.5263C13.2312 10.7719 12.86 10.8947 12.425 10.8947C11.99 10.8947 11.6187 10.7719 11.3112 10.5263C11.0037 10.2807 10.85 9.98246 10.85 9.63158L12.2 6.68421H10.7712C10.7037 6.86667 10.5987 7.02456 10.4562 7.1579C10.3137 7.29123 10.145 7.38947 9.95 7.45263V12.1579H14V13H5ZM11.5812 9.63158H13.2687L12.425 7.8L11.5812 9.63158ZM5.73125 9.63158H7.41875L6.575 7.8L5.73125 9.63158ZM9.5 6.68421C9.6275 6.68421 9.73445 6.64379 9.82085 6.56295C9.90725 6.48211 9.9503 6.38218 9.95 6.26316C9.9497 6.14414 9.9065 6.04421 9.8204 5.96337C9.7343 5.88253 9.6275 5.84211 9.5 5.84211C9.3725 5.84211 9.2657 5.88253 9.1796 5.96337C9.0935 6.04421 9.0503 6.14414 9.05 6.26316C9.0497 6.38218 9.0929 6.48225 9.1796 6.56337C9.2663 6.64449 9.3731 6.68477 9.5 6.68421Z" fill="#F69230"/>
</svg>
