<svg width="284" height="58" viewBox="0 0 284 58" fill="none" xmlns="http://www.w3.org/2000/svg">
<g clip-path="url(#clip0_229_9519)">
<path d="M5.73417 14.4594C-5.98231 31.4518 7.08529 55.2209 25.1903 56.0566C49.8367 57.652 63.8373 35.058 53.5943 15.8624C47.2772 4.39061 38.2833 1.76198 28.6369 1.26562" stroke="#F09731" stroke-width="2" stroke-miterlimit="10" stroke-linecap="round"/>
<path d="M28.6406 14.4609C48.8768 14.4609 47.2962 43.6747 28.6406 43.0467" stroke="#F09731" stroke-width="2" stroke-miterlimit="10" stroke-linecap="round"/>
<path d="M5.60938 28.7054C6.75145 45.713 20.5175 53.8775 33.2333 51.5527C52.9342 47.4401 54.2445 29.6525 50.6143 19.604C44.6286 9.70733 37.0573 6.09613 28.6395 5.8125" stroke="#F09731" stroke-width="2" stroke-miterlimit="10" stroke-linecap="round"/>
<path d="M19.7422 44.9747C28.6749 49.5583 36.3176 48.2364 42.8284 41.7535C48.5592 34.1563 48.5031 28.1241 46.7186 22.5579C42.7724 12.5853 35.8842 10.7012 28.6392 9.80469" stroke="#F09731" stroke-width="2" stroke-miterlimit="10" stroke-linecap="round"/>
</g>
<path d="M83.032 28.24C81.752 28.24 80.56 28.032 79.456 27.616C78.368 27.184 77.416 26.584 76.6 25.816C75.8 25.032 75.176 24.112 74.728 23.056C74.28 22 74.056 20.848 74.056 19.6C74.056 18.352 74.28 17.2 74.728 16.144C75.176 15.088 75.808 14.176 76.624 13.408C77.44 12.624 78.392 12.024 79.48 11.608C80.568 11.176 81.76 10.96 83.056 10.96C84.432 10.96 85.688 11.2 86.824 11.68C87.96 12.144 88.92 12.84 89.704 13.768L87.688 15.664C87.08 15.008 86.4 14.52 85.648 14.2C84.896 13.864 84.08 13.696 83.2 13.696C82.32 13.696 81.512 13.84 80.776 14.128C80.056 14.416 79.424 14.824 78.88 15.352C78.352 15.88 77.936 16.504 77.632 17.224C77.344 17.944 77.2 18.736 77.2 19.6C77.2 20.464 77.344 21.256 77.632 21.976C77.936 22.696 78.352 23.32 78.88 23.848C79.424 24.376 80.056 24.784 80.776 25.072C81.512 25.36 82.32 25.504 83.2 25.504C84.08 25.504 84.896 25.344 85.648 25.024C86.4 24.688 87.08 24.184 87.688 23.512L89.704 25.432C88.92 26.344 87.96 27.04 86.824 27.52C85.688 28 84.424 28.24 83.032 28.24ZM93.4615 32.824C92.8375 32.824 92.2135 32.72 91.5895 32.512C90.9655 32.304 90.4455 32.016 90.0295 31.648L91.2295 29.44C91.5335 29.712 91.8775 29.928 92.2615 30.088C92.6455 30.248 93.0375 30.328 93.4375 30.328C93.9815 30.328 94.4215 30.192 94.7575 29.92C95.0935 29.648 95.4055 29.192 95.6935 28.552L96.4375 26.872L96.6775 26.512L101.526 15.184H104.406L98.4055 29.032C98.0055 29.992 97.5575 30.752 97.0615 31.312C96.5815 31.872 96.0375 32.264 95.4295 32.488C94.8375 32.712 94.1815 32.824 93.4615 32.824ZM96.1015 28.456L90.3175 15.184H93.4375L98.1415 26.248L96.1015 28.456ZM113.385 28.168C112.297 28.168 111.329 27.928 110.48 27.448C109.633 26.968 108.961 26.248 108.465 25.288C107.985 24.312 107.745 23.08 107.745 21.592C107.745 20.088 107.993 18.856 108.489 17.896C109.001 16.936 109.681 16.224 110.529 15.76C111.393 15.28 112.345 15.04 113.385 15.04C114.649 15.04 115.761 15.312 116.721 15.856C117.697 16.4 118.465 17.16 119.025 18.136C119.601 19.112 119.889 20.264 119.889 21.592C119.889 22.92 119.601 24.072 119.025 25.048C118.465 26.024 117.697 26.792 116.721 27.352C115.761 27.896 114.649 28.168 113.385 28.168ZM106.281 28V10.192H109.281V18.16L109.041 21.568L109.137 24.976V28H106.281ZM113.049 25.6C113.769 25.6 114.409 25.44 114.969 25.12C115.545 24.8 116.001 24.336 116.337 23.728C116.673 23.12 116.841 22.408 116.841 21.592C116.841 20.76 116.673 20.048 116.337 19.456C116.001 18.848 115.545 18.384 114.969 18.064C114.409 17.744 113.769 17.584 113.049 17.584C112.329 17.584 111.681 17.744 111.105 18.064C110.529 18.384 110.073 18.848 109.737 19.456C109.401 20.048 109.233 20.76 109.233 21.592C109.233 22.408 109.401 23.12 109.737 23.728C110.073 24.336 110.529 24.8 111.105 25.12C111.681 25.44 112.329 25.6 113.049 25.6ZM128.758 28.168C127.334 28.168 126.086 27.888 125.014 27.328C123.958 26.752 123.134 25.968 122.542 24.976C121.966 23.984 121.678 22.856 121.678 21.592C121.678 20.312 121.958 19.184 122.518 18.208C123.094 17.216 123.878 16.44 124.87 15.88C125.878 15.32 127.022 15.04 128.302 15.04C129.55 15.04 130.662 15.312 131.638 15.856C132.614 16.4 133.382 17.168 133.942 18.16C134.502 19.152 134.782 20.32 134.782 21.664C134.782 21.792 134.774 21.936 134.758 22.096C134.758 22.256 134.75 22.408 134.734 22.552H124.054V20.56H133.15L131.974 21.184C131.99 20.448 131.838 19.8 131.518 19.24C131.198 18.68 130.758 18.24 130.198 17.92C129.654 17.6 129.022 17.44 128.302 17.44C127.566 17.44 126.918 17.6 126.358 17.92C125.814 18.24 125.382 18.688 125.062 19.264C124.758 19.824 124.606 20.488 124.606 21.256V21.736C124.606 22.504 124.782 23.184 125.134 23.776C125.486 24.368 125.982 24.824 126.622 25.144C127.262 25.464 127.998 25.624 128.83 25.624C129.55 25.624 130.198 25.512 130.774 25.288C131.35 25.064 131.862 24.712 132.31 24.232L133.918 26.08C133.342 26.752 132.614 27.272 131.734 27.64C130.87 27.992 129.878 28.168 128.758 28.168ZM137.663 28V15.184H140.519V18.712L140.183 17.68C140.567 16.816 141.167 16.16 141.983 15.712C142.815 15.264 143.847 15.04 145.079 15.04V17.896C144.951 17.864 144.831 17.848 144.719 17.848C144.607 17.832 144.495 17.824 144.383 17.824C143.247 17.824 142.343 18.16 141.671 18.832C140.999 19.488 140.663 20.472 140.663 21.784V28H137.663ZM152.933 28.24C151.621 28.24 150.365 28.056 149.165 27.688C147.965 27.304 147.013 26.816 146.309 26.224L147.389 23.8C148.061 24.328 148.893 24.768 149.885 25.12C150.877 25.472 151.893 25.648 152.933 25.648C153.813 25.648 154.525 25.552 155.069 25.36C155.613 25.168 156.013 24.912 156.269 24.592C156.525 24.256 156.653 23.88 156.653 23.464C156.653 22.952 156.469 22.544 156.101 22.24C155.733 21.92 155.253 21.672 154.661 21.496C154.085 21.304 153.437 21.128 152.717 20.968C152.013 20.808 151.301 20.624 150.581 20.416C149.877 20.192 149.229 19.912 148.637 19.576C148.061 19.224 147.589 18.76 147.221 18.184C146.853 17.608 146.669 16.872 146.669 15.976C146.669 15.064 146.909 14.232 147.389 13.48C147.885 12.712 148.629 12.104 149.621 11.656C150.629 11.192 151.901 10.96 153.437 10.96C154.445 10.96 155.445 11.088 156.437 11.344C157.429 11.6 158.293 11.968 159.029 12.448L158.045 14.872C157.293 14.424 156.517 14.096 155.717 13.888C154.917 13.664 154.149 13.552 153.413 13.552C152.549 13.552 151.845 13.656 151.301 13.864C150.773 14.072 150.381 14.344 150.125 14.68C149.885 15.016 149.765 15.4 149.765 15.832C149.765 16.344 149.941 16.76 150.293 17.08C150.661 17.384 151.133 17.624 151.709 17.8C152.301 17.976 152.957 18.152 153.677 18.328C154.397 18.488 155.109 18.672 155.813 18.88C156.533 19.088 157.181 19.36 157.757 19.696C158.349 20.032 158.821 20.488 159.173 21.064C159.541 21.64 159.725 22.368 159.725 23.248C159.725 24.144 159.477 24.976 158.981 25.744C158.501 26.496 157.757 27.104 156.749 27.568C155.741 28.016 154.469 28.24 152.933 28.24ZM178.707 15.04C179.731 15.04 180.635 15.24 181.419 15.64C182.219 16.04 182.843 16.656 183.291 17.488C183.739 18.304 183.963 19.36 183.963 20.656V28H180.963V21.04C180.963 19.904 180.715 19.056 180.219 18.496C179.723 17.936 179.011 17.656 178.083 17.656C177.427 17.656 176.843 17.8 176.331 18.088C175.835 18.376 175.443 18.8 175.155 19.36C174.883 19.92 174.747 20.632 174.747 21.496V28H171.747V21.04C171.747 19.904 171.499 19.056 171.003 18.496C170.507 17.936 169.795 17.656 168.867 17.656C168.211 17.656 167.627 17.8 167.115 18.088C166.619 18.376 166.227 18.8 165.939 19.36C165.667 19.92 165.531 20.632 165.531 21.496V28H162.531V15.184H165.387V18.592L164.883 17.584C165.315 16.752 165.939 16.12 166.755 15.688C167.587 15.256 168.531 15.04 169.587 15.04C170.787 15.04 171.827 15.336 172.707 15.928C173.603 16.52 174.195 17.416 174.483 18.616L173.307 18.208C173.723 17.248 174.411 16.48 175.371 15.904C176.331 15.328 177.443 15.04 178.707 15.04ZM195.692 28V25.408L195.524 24.856V20.32C195.524 19.44 195.26 18.76 194.732 18.28C194.204 17.784 193.404 17.536 192.332 17.536C191.612 17.536 190.9 17.648 190.196 17.872C189.508 18.096 188.924 18.408 188.444 18.808L187.268 16.624C187.956 16.096 188.772 15.704 189.716 15.448C190.676 15.176 191.668 15.04 192.692 15.04C194.548 15.04 195.98 15.488 196.988 16.384C198.012 17.264 198.524 18.632 198.524 20.488V28H195.692ZM191.66 28.168C190.7 28.168 189.86 28.008 189.14 27.688C188.42 27.352 187.86 26.896 187.46 26.32C187.076 25.728 186.884 25.064 186.884 24.328C186.884 23.608 187.052 22.96 187.388 22.384C187.74 21.808 188.308 21.352 189.092 21.016C189.876 20.68 190.916 20.512 192.212 20.512H195.932V22.504H192.428C191.404 22.504 190.716 22.672 190.364 23.008C190.012 23.328 189.836 23.728 189.836 24.208C189.836 24.752 190.052 25.184 190.484 25.504C190.916 25.824 191.516 25.984 192.284 25.984C193.02 25.984 193.676 25.816 194.252 25.48C194.844 25.144 195.268 24.648 195.524 23.992L196.028 25.792C195.74 26.544 195.22 27.128 194.468 27.544C193.732 27.96 192.796 28.168 191.66 28.168ZM202.374 28V15.184H205.23V18.712L204.894 17.68C205.278 16.816 205.878 16.16 206.694 15.712C207.526 15.264 208.558 15.04 209.79 15.04V17.896C209.662 17.864 209.542 17.848 209.43 17.848C209.318 17.832 209.206 17.824 209.094 17.824C207.958 17.824 207.054 18.16 206.382 18.832C205.71 19.488 205.374 20.472 205.374 21.784V28H202.374ZM217.628 28.168C216.22 28.168 215.132 27.808 214.364 27.088C213.596 26.352 213.212 25.272 213.212 23.848V12.352H216.212V23.776C216.212 24.384 216.364 24.856 216.668 25.192C216.988 25.528 217.428 25.696 217.988 25.696C218.66 25.696 219.22 25.52 219.668 25.168L220.508 27.304C220.156 27.592 219.724 27.808 219.212 27.952C218.7 28.096 218.172 28.168 217.628 28.168ZM211.1 17.68V15.28H219.644V17.68H211.1Z" fill="#74C5B5"/>
<path d="M74.6587 51L78.4388 42.6H79.9748L83.7668 51H82.1348L78.8828 43.428H79.5068L76.2668 51H74.6587ZM76.3988 49.056L76.8188 47.832H81.3548L81.7747 49.056H76.3988ZM84.691 51V44.592H86.119V46.356L85.951 45.84C86.143 45.408 86.443 45.08 86.851 44.856C87.267 44.632 87.783 44.52 88.399 44.52V45.948C88.335 45.932 88.275 45.924 88.219 45.924C88.163 45.916 88.107 45.912 88.051 45.912C87.483 45.912 87.031 46.08 86.695 46.416C86.359 46.744 86.191 47.236 86.191 47.892V51H84.691ZM92.3179 51.084C91.6139 51.084 91.0699 50.904 90.6859 50.544C90.3019 50.176 90.1099 49.636 90.1099 48.924V43.176H91.6099V48.888C91.6099 49.192 91.6859 49.428 91.8379 49.596C91.9979 49.764 92.2179 49.848 92.4979 49.848C92.8339 49.848 93.1139 49.76 93.3379 49.584L93.7579 50.652C93.5819 50.796 93.3659 50.904 93.1099 50.976C92.8539 51.048 92.5899 51.084 92.3179 51.084ZM89.0539 45.84V44.64H93.3259V45.84H89.0539ZM94.9918 51V44.592H96.4918V51H94.9918ZM95.7478 43.536C95.4678 43.536 95.2358 43.448 95.0518 43.272C94.8758 43.096 94.7878 42.884 94.7878 42.636C94.7878 42.38 94.8758 42.168 95.0518 42C95.2358 41.824 95.4678 41.736 95.7478 41.736C96.0278 41.736 96.2558 41.82 96.4318 41.988C96.6158 42.148 96.7078 42.352 96.7078 42.6C96.7078 42.864 96.6198 43.088 96.4438 43.272C96.2678 43.448 96.0358 43.536 95.7478 43.536ZM98.6646 51V44.232C98.6646 43.56 98.8606 43.024 99.2526 42.624C99.6526 42.216 100.221 42.012 100.957 42.012C101.221 42.012 101.469 42.04 101.701 42.096C101.941 42.152 102.141 42.24 102.301 42.36L101.893 43.488C101.781 43.4 101.653 43.336 101.509 43.296C101.365 43.248 101.217 43.224 101.065 43.224C100.753 43.224 100.517 43.312 100.357 43.488C100.197 43.656 100.117 43.912 100.117 44.256V44.976L100.165 45.648V51H98.6646ZM97.6086 45.84V44.64H101.881V45.84H97.6086ZM102.937 51V44.592H104.437V51H102.937ZM103.693 43.536C103.413 43.536 103.181 43.448 102.997 43.272C102.821 43.096 102.733 42.884 102.733 42.636C102.733 42.38 102.821 42.168 102.997 42C103.181 41.824 103.413 41.736 103.693 41.736C103.973 41.736 104.201 41.82 104.377 41.988C104.561 42.148 104.653 42.352 104.653 42.6C104.653 42.864 104.565 43.088 104.389 43.272C104.213 43.448 103.981 43.536 103.693 43.536ZM109.346 51.084C108.674 51.084 108.074 50.944 107.546 50.664C107.026 50.376 106.618 49.984 106.322 49.488C106.026 48.992 105.878 48.428 105.878 47.796C105.878 47.156 106.026 46.592 106.322 46.104C106.618 45.608 107.026 45.22 107.546 44.94C108.074 44.66 108.674 44.52 109.346 44.52C109.97 44.52 110.518 44.648 110.99 44.904C111.47 45.152 111.834 45.52 112.082 46.008L110.93 46.68C110.738 46.376 110.502 46.152 110.222 46.008C109.95 45.864 109.654 45.792 109.334 45.792C108.966 45.792 108.634 45.872 108.338 46.032C108.042 46.192 107.81 46.424 107.642 46.728C107.474 47.024 107.39 47.38 107.39 47.796C107.39 48.212 107.474 48.572 107.642 48.876C107.81 49.172 108.042 49.4 108.338 49.56C108.634 49.72 108.966 49.8 109.334 49.8C109.654 49.8 109.95 49.728 110.222 49.584C110.502 49.44 110.738 49.216 110.93 48.912L112.082 49.584C111.834 50.064 111.47 50.436 110.99 50.7C110.518 50.956 109.97 51.084 109.346 51.084ZM113.32 51V44.592H114.82V51H113.32ZM114.076 43.536C113.796 43.536 113.564 43.448 113.38 43.272C113.204 43.096 113.116 42.884 113.116 42.636C113.116 42.38 113.204 42.168 113.38 42C113.564 41.824 113.796 41.736 114.076 41.736C114.356 41.736 114.584 41.82 114.76 41.988C114.944 42.148 115.036 42.352 115.036 42.6C115.036 42.864 114.948 43.088 114.772 43.272C114.596 43.448 114.364 43.536 114.076 43.536ZM120.737 51V49.704L120.653 49.428V47.16C120.653 46.72 120.521 46.38 120.257 46.14C119.993 45.892 119.593 45.768 119.057 45.768C118.697 45.768 118.341 45.824 117.989 45.936C117.645 46.048 117.353 46.204 117.113 46.404L116.525 45.312C116.869 45.048 117.277 44.852 117.749 44.724C118.229 44.588 118.725 44.52 119.237 44.52C120.165 44.52 120.881 44.744 121.385 45.192C121.897 45.632 122.153 46.316 122.153 47.244V51H120.737ZM118.721 51.084C118.241 51.084 117.821 51.004 117.461 50.844C117.101 50.676 116.821 50.448 116.621 50.16C116.429 49.864 116.333 49.532 116.333 49.164C116.333 48.804 116.417 48.48 116.585 48.192C116.761 47.904 117.045 47.676 117.437 47.508C117.829 47.34 118.349 47.256 118.997 47.256H120.857V48.252H119.105C118.593 48.252 118.249 48.336 118.073 48.504C117.897 48.664 117.809 48.864 117.809 49.104C117.809 49.376 117.917 49.592 118.133 49.752C118.349 49.912 118.649 49.992 119.033 49.992C119.401 49.992 119.729 49.908 120.017 49.74C120.313 49.572 120.525 49.324 120.653 48.996L120.905 49.896C120.761 50.272 120.501 50.564 120.125 50.772C119.757 50.98 119.289 51.084 118.721 51.084ZM124.078 51V42.096H125.578V51H124.078ZM134.323 51V42.6H135.883V51H134.323ZM141.647 44.52C142.159 44.52 142.615 44.62 143.015 44.82C143.423 45.02 143.743 45.328 143.975 45.744C144.207 46.152 144.323 46.68 144.323 47.328V51H142.823V47.52C142.823 46.952 142.687 46.528 142.415 46.248C142.151 45.968 141.779 45.828 141.299 45.828C140.947 45.828 140.635 45.9 140.363 46.044C140.091 46.188 139.879 46.404 139.727 46.692C139.583 46.972 139.511 47.328 139.511 47.76V51H138.011V44.592H139.439V46.32L139.187 45.792C139.411 45.384 139.735 45.072 140.159 44.856C140.591 44.632 141.087 44.52 141.647 44.52ZM148.638 51.084C147.934 51.084 147.39 50.904 147.006 50.544C146.622 50.176 146.43 49.636 146.43 48.924V43.176H147.93V48.888C147.93 49.192 148.006 49.428 148.158 49.596C148.318 49.764 148.538 49.848 148.818 49.848C149.154 49.848 149.434 49.76 149.658 49.584L150.078 50.652C149.902 50.796 149.686 50.904 149.43 50.976C149.174 51.048 148.91 51.084 148.638 51.084ZM145.374 45.84V44.64H149.646V45.84H145.374ZM154.113 51.084C153.401 51.084 152.777 50.944 152.241 50.664C151.713 50.376 151.301 49.984 151.005 49.488C150.717 48.992 150.573 48.428 150.573 47.796C150.573 47.156 150.713 46.592 150.993 46.104C151.281 45.608 151.673 45.22 152.169 44.94C152.673 44.66 153.245 44.52 153.885 44.52C154.509 44.52 155.065 44.656 155.553 44.928C156.041 45.2 156.425 45.584 156.705 46.08C156.985 46.576 157.125 47.16 157.125 47.832C157.125 47.896 157.121 47.968 157.113 48.048C157.113 48.128 157.109 48.204 157.101 48.276H151.761V47.28H156.309L155.721 47.592C155.729 47.224 155.653 46.9 155.493 46.62C155.333 46.34 155.113 46.12 154.833 45.96C154.561 45.8 154.245 45.72 153.885 45.72C153.517 45.72 153.193 45.8 152.913 45.96C152.641 46.12 152.425 46.344 152.265 46.632C152.113 46.912 152.037 47.244 152.037 47.628V47.868C152.037 48.252 152.125 48.592 152.301 48.888C152.477 49.184 152.725 49.412 153.045 49.572C153.365 49.732 153.733 49.812 154.149 49.812C154.509 49.812 154.833 49.756 155.121 49.644C155.409 49.532 155.665 49.356 155.889 49.116L156.693 50.04C156.405 50.376 156.041 50.636 155.601 50.82C155.169 50.996 154.673 51.084 154.113 51.084ZM158.566 51V42.096H160.066V51H158.566ZM162.035 51V42.096H163.535V51H162.035ZM165.504 51V44.592H167.004V51H165.504ZM166.26 43.536C165.98 43.536 165.748 43.448 165.564 43.272C165.388 43.096 165.3 42.884 165.3 42.636C165.3 42.38 165.388 42.168 165.564 42C165.748 41.824 165.98 41.736 166.26 41.736C166.54 41.736 166.768 41.82 166.944 41.988C167.128 42.148 167.22 42.352 167.22 42.6C167.22 42.864 167.132 43.088 166.956 43.272C166.78 43.448 166.548 43.536 166.26 43.536ZM171.876 53.412C171.284 53.412 170.704 53.332 170.136 53.172C169.576 53.02 169.116 52.796 168.756 52.5L169.428 51.372C169.708 51.604 170.06 51.788 170.484 51.924C170.916 52.068 171.352 52.14 171.792 52.14C172.496 52.14 173.012 51.976 173.34 51.648C173.668 51.328 173.832 50.844 173.832 50.196V49.056L173.952 47.604L173.904 46.152V44.592H175.332V50.028C175.332 51.188 175.036 52.04 174.444 52.584C173.852 53.136 172.996 53.412 171.876 53.412ZM171.684 50.712C171.076 50.712 170.524 50.584 170.028 50.328C169.54 50.064 169.152 49.7 168.864 49.236C168.584 48.772 168.444 48.228 168.444 47.604C168.444 46.988 168.584 46.448 168.864 45.984C169.152 45.52 169.54 45.16 170.028 44.904C170.524 44.648 171.076 44.52 171.684 44.52C172.228 44.52 172.716 44.628 173.148 44.844C173.58 45.06 173.924 45.396 174.18 45.852C174.444 46.308 174.576 46.892 174.576 47.604C174.576 48.316 174.444 48.904 174.18 49.368C173.924 49.824 173.58 50.164 173.148 50.388C172.716 50.604 172.228 50.712 171.684 50.712ZM171.912 49.44C172.288 49.44 172.624 49.364 172.92 49.212C173.216 49.052 173.444 48.836 173.604 48.564C173.772 48.284 173.856 47.964 173.856 47.604C173.856 47.244 173.772 46.928 173.604 46.656C173.444 46.376 173.216 46.164 172.92 46.02C172.624 45.868 172.288 45.792 171.912 45.792C171.536 45.792 171.196 45.868 170.892 46.02C170.596 46.164 170.364 46.376 170.196 46.656C170.036 46.928 169.956 47.244 169.956 47.604C169.956 47.964 170.036 48.284 170.196 48.564C170.364 48.836 170.596 49.052 170.892 49.212C171.196 49.364 171.536 49.44 171.912 49.44ZM180.316 51.084C179.604 51.084 178.98 50.944 178.444 50.664C177.916 50.376 177.504 49.984 177.208 49.488C176.92 48.992 176.776 48.428 176.776 47.796C176.776 47.156 176.916 46.592 177.196 46.104C177.484 45.608 177.876 45.22 178.372 44.94C178.876 44.66 179.448 44.52 180.088 44.52C180.712 44.52 181.268 44.656 181.756 44.928C182.244 45.2 182.628 45.584 182.908 46.08C183.188 46.576 183.328 47.16 183.328 47.832C183.328 47.896 183.324 47.968 183.316 48.048C183.316 48.128 183.312 48.204 183.304 48.276H177.964V47.28H182.512L181.924 47.592C181.932 47.224 181.856 46.9 181.696 46.62C181.536 46.34 181.316 46.12 181.036 45.96C180.764 45.8 180.448 45.72 180.088 45.72C179.72 45.72 179.396 45.8 179.116 45.96C178.844 46.12 178.628 46.344 178.468 46.632C178.316 46.912 178.24 47.244 178.24 47.628V47.868C178.24 48.252 178.328 48.592 178.504 48.888C178.68 49.184 178.928 49.412 179.248 49.572C179.568 49.732 179.936 49.812 180.352 49.812C180.712 49.812 181.036 49.756 181.324 49.644C181.612 49.532 181.868 49.356 182.092 49.116L182.896 50.04C182.608 50.376 182.244 50.636 181.804 50.82C181.372 50.996 180.876 51.084 180.316 51.084ZM188.405 44.52C188.917 44.52 189.373 44.62 189.773 44.82C190.181 45.02 190.501 45.328 190.733 45.744C190.965 46.152 191.081 46.68 191.081 47.328V51H189.581V47.52C189.581 46.952 189.445 46.528 189.173 46.248C188.909 45.968 188.537 45.828 188.057 45.828C187.705 45.828 187.393 45.9 187.121 46.044C186.849 46.188 186.637 46.404 186.485 46.692C186.341 46.972 186.269 47.328 186.269 47.76V51H184.769V44.592H186.197V46.32L185.945 45.792C186.169 45.384 186.493 45.072 186.917 44.856C187.349 44.632 187.845 44.52 188.405 44.52ZM195.936 51.084C195.264 51.084 194.664 50.944 194.136 50.664C193.616 50.376 193.208 49.984 192.912 49.488C192.616 48.992 192.468 48.428 192.468 47.796C192.468 47.156 192.616 46.592 192.912 46.104C193.208 45.608 193.616 45.22 194.136 44.94C194.664 44.66 195.264 44.52 195.936 44.52C196.56 44.52 197.108 44.648 197.58 44.904C198.06 45.152 198.424 45.52 198.672 46.008L197.52 46.68C197.328 46.376 197.092 46.152 196.812 46.008C196.54 45.864 196.244 45.792 195.924 45.792C195.556 45.792 195.224 45.872 194.928 46.032C194.632 46.192 194.4 46.424 194.232 46.728C194.064 47.024 193.98 47.38 193.98 47.796C193.98 48.212 194.064 48.572 194.232 48.876C194.4 49.172 194.632 49.4 194.928 49.56C195.224 49.72 195.556 49.8 195.924 49.8C196.244 49.8 196.54 49.728 196.812 49.584C197.092 49.44 197.328 49.216 197.52 48.912L198.672 49.584C198.424 50.064 198.06 50.436 197.58 50.7C197.108 50.956 196.56 51.084 195.936 51.084ZM202.887 51.084C202.175 51.084 201.551 50.944 201.015 50.664C200.487 50.376 200.075 49.984 199.779 49.488C199.491 48.992 199.347 48.428 199.347 47.796C199.347 47.156 199.487 46.592 199.767 46.104C200.055 45.608 200.447 45.22 200.943 44.94C201.447 44.66 202.019 44.52 202.659 44.52C203.283 44.52 203.839 44.656 204.327 44.928C204.815 45.2 205.199 45.584 205.479 46.08C205.759 46.576 205.899 47.16 205.899 47.832C205.899 47.896 205.895 47.968 205.887 48.048C205.887 48.128 205.883 48.204 205.875 48.276H200.535V47.28H205.083L204.495 47.592C204.503 47.224 204.427 46.9 204.267 46.62C204.107 46.34 203.887 46.12 203.607 45.96C203.335 45.8 203.019 45.72 202.659 45.72C202.291 45.72 201.967 45.8 201.687 45.96C201.415 46.12 201.199 46.344 201.039 46.632C200.887 46.912 200.811 47.244 200.811 47.628V47.868C200.811 48.252 200.899 48.592 201.075 48.888C201.251 49.184 201.499 49.412 201.819 49.572C202.139 49.732 202.507 49.812 202.923 49.812C203.283 49.812 203.607 49.756 203.895 49.644C204.183 49.532 204.439 49.356 204.663 49.116L205.467 50.04C205.179 50.376 204.815 50.636 204.375 50.82C203.943 50.996 203.447 51.084 202.887 51.084ZM212.24 46.092H216.416V47.376H212.24V46.092ZM212.36 49.692H217.1V51H210.8V42.6H216.932V43.908H212.36V49.692ZM222.331 44.52C222.843 44.52 223.299 44.62 223.699 44.82C224.107 45.02 224.427 45.328 224.659 45.744C224.891 46.152 225.007 46.68 225.007 47.328V51H223.507V47.52C223.507 46.952 223.371 46.528 223.099 46.248C222.835 45.968 222.463 45.828 221.983 45.828C221.631 45.828 221.319 45.9 221.047 46.044C220.775 46.188 220.563 46.404 220.411 46.692C220.267 46.972 220.195 47.328 220.195 47.76V51H218.695V44.592H220.123V46.32L219.871 45.792C220.095 45.384 220.419 45.072 220.843 44.856C221.275 44.632 221.771 44.52 222.331 44.52ZM229.826 53.412C229.234 53.412 228.654 53.332 228.086 53.172C227.526 53.02 227.066 52.796 226.706 52.5L227.378 51.372C227.658 51.604 228.01 51.788 228.434 51.924C228.866 52.068 229.302 52.14 229.742 52.14C230.446 52.14 230.962 51.976 231.29 51.648C231.618 51.328 231.782 50.844 231.782 50.196V49.056L231.902 47.604L231.854 46.152V44.592H233.282V50.028C233.282 51.188 232.986 52.04 232.394 52.584C231.802 53.136 230.946 53.412 229.826 53.412ZM229.634 50.712C229.026 50.712 228.474 50.584 227.978 50.328C227.49 50.064 227.102 49.7 226.814 49.236C226.534 48.772 226.394 48.228 226.394 47.604C226.394 46.988 226.534 46.448 226.814 45.984C227.102 45.52 227.49 45.16 227.978 44.904C228.474 44.648 229.026 44.52 229.634 44.52C230.178 44.52 230.666 44.628 231.098 44.844C231.53 45.06 231.874 45.396 232.13 45.852C232.394 46.308 232.526 46.892 232.526 47.604C232.526 48.316 232.394 48.904 232.13 49.368C231.874 49.824 231.53 50.164 231.098 50.388C230.666 50.604 230.178 50.712 229.634 50.712ZM229.862 49.44C230.238 49.44 230.574 49.364 230.87 49.212C231.166 49.052 231.394 48.836 231.554 48.564C231.722 48.284 231.806 47.964 231.806 47.604C231.806 47.244 231.722 46.928 231.554 46.656C231.394 46.376 231.166 46.164 230.87 46.02C230.574 45.868 230.238 45.792 229.862 45.792C229.486 45.792 229.146 45.868 228.842 46.02C228.546 46.164 228.314 46.376 228.146 46.656C227.986 46.928 227.906 47.244 227.906 47.604C227.906 47.964 227.986 48.284 228.146 48.564C228.314 48.836 228.546 49.052 228.842 49.212C229.146 49.364 229.486 49.44 229.862 49.44ZM235.254 51V44.592H236.754V51H235.254ZM236.01 43.536C235.73 43.536 235.498 43.448 235.314 43.272C235.138 43.096 235.05 42.884 235.05 42.636C235.05 42.38 235.138 42.168 235.314 42C235.498 41.824 235.73 41.736 236.01 41.736C236.29 41.736 236.518 41.82 236.694 41.988C236.878 42.148 236.97 42.352 236.97 42.6C236.97 42.864 236.882 43.088 236.706 43.272C236.53 43.448 236.298 43.536 236.01 43.536ZM242.358 44.52C242.87 44.52 243.326 44.62 243.726 44.82C244.134 45.02 244.454 45.328 244.686 45.744C244.918 46.152 245.034 46.68 245.034 47.328V51H243.534V47.52C243.534 46.952 243.398 46.528 243.126 46.248C242.862 45.968 242.49 45.828 242.01 45.828C241.658 45.828 241.346 45.9 241.074 46.044C240.802 46.188 240.59 46.404 240.438 46.692C240.294 46.972 240.222 47.328 240.222 47.76V51H238.722V44.592H240.15V46.32L239.898 45.792C240.122 45.384 240.446 45.072 240.87 44.856C241.302 44.632 241.798 44.52 242.358 44.52ZM249.961 51.084C249.249 51.084 248.625 50.944 248.089 50.664C247.561 50.376 247.149 49.984 246.853 49.488C246.565 48.992 246.421 48.428 246.421 47.796C246.421 47.156 246.561 46.592 246.841 46.104C247.129 45.608 247.521 45.22 248.017 44.94C248.521 44.66 249.093 44.52 249.733 44.52C250.357 44.52 250.913 44.656 251.401 44.928C251.889 45.2 252.273 45.584 252.553 46.08C252.833 46.576 252.973 47.16 252.973 47.832C252.973 47.896 252.969 47.968 252.961 48.048C252.961 48.128 252.957 48.204 252.949 48.276H247.609V47.28H252.157L251.569 47.592C251.577 47.224 251.501 46.9 251.341 46.62C251.181 46.34 250.961 46.12 250.681 45.96C250.409 45.8 250.093 45.72 249.733 45.72C249.365 45.72 249.041 45.8 248.761 45.96C248.489 46.12 248.273 46.344 248.113 46.632C247.961 46.912 247.885 47.244 247.885 47.628V47.868C247.885 48.252 247.973 48.592 248.149 48.888C248.325 49.184 248.573 49.412 248.893 49.572C249.213 49.732 249.581 49.812 249.997 49.812C250.357 49.812 250.681 49.756 250.969 49.644C251.257 49.532 251.513 49.356 251.737 49.116L252.541 50.04C252.253 50.376 251.889 50.636 251.449 50.82C251.017 50.996 250.521 51.084 249.961 51.084Z" fill="#27187E"/>
<defs>
<clipPath id="clip0_229_9519">
<rect width="58.2561" height="57.3994" fill="white"/>
</clipPath>
</defs>
</svg>
