<svg width="20" height="20" viewBox="0 0 20 20" fill="none" xmlns="http://www.w3.org/2000/svg">
<rect x="0.25" y="0.25" width="19.5" height="19.5" rx="1.75" fill="#27187E"/>
<rect x="0.25" y="0.25" width="19.5" height="19.5" rx="1.75" stroke="#27187E" stroke-width="0.5"/>
<path fill-rule="evenodd" clip-rule="evenodd" d="M9.67414 4.76562V6.86063H10.053V5.49437L10.8671 6.86063H11.2764V4.76562H10.8975V6.16457L10.071 4.76562H9.67414ZM10.2365 7.5612L7.63451 14.8884C7.55142 15.1228 7.80193 15.3334 8.00579 15.2003L10.4752 13.5851L12.9445 15.2003C13.1485 15.3337 13.3993 15.123 13.3161 14.8884L10.712 7.55586C10.6644 7.44105 10.5825 7.38491 10.4713 7.38459C10.3601 7.38428 10.2675 7.47426 10.2365 7.5612ZM10.2229 9.11465V13.131L8.36494 14.3464L10.2229 9.11465Z" fill="white"/>
</svg>
