<svg width="20" height="22" viewBox="0 0 20 22" fill="none" xmlns="http://www.w3.org/2000/svg">
<path fill-rule="evenodd" clip-rule="evenodd" d="M10.474 21.2584L10.463 21.2604L10.392 21.2954L10.372 21.2994L10.358 21.2954L10.287 21.2604C10.2764 21.2571 10.2684 21.2588 10.263 21.2654L10.259 21.2754L10.242 21.7034L10.247 21.7234L10.257 21.7364L10.361 21.8104L10.376 21.8144L10.388 21.8104L10.492 21.7364L10.504 21.7204L10.508 21.7034L10.491 21.2764C10.4884 21.2658 10.4827 21.2598 10.474 21.2584ZM10.739 21.1454L10.726 21.1474L10.541 21.2404L10.531 21.2504L10.528 21.2614L10.546 21.6914L10.551 21.7034L10.559 21.7104L10.76 21.8034C10.7727 21.8068 10.7824 21.8041 10.789 21.7954L10.793 21.7814L10.759 21.1674C10.7557 21.1554 10.749 21.1481 10.739 21.1454ZM10.024 21.1474C10.0196 21.1448 10.0144 21.1439 10.0093 21.145C10.0043 21.1461 9.99989 21.1491 9.99703 21.1534L9.99103 21.1674L9.95703 21.7814C9.9577 21.7934 9.96336 21.8014 9.97403 21.8054L9.98903 21.8034L10.19 21.7104L10.2 21.7024L10.204 21.6914L10.221 21.2614L10.218 21.2494L10.208 21.2394L10.024 21.1474Z" fill="#FF8600"/>
<path fill-rule="evenodd" clip-rule="evenodd" d="M12.0917 15.776C12.6116 15.5161 13.1818 15.3726 13.7628 15.3555C14.3438 15.3384 14.9215 15.4481 15.4557 15.677L15.6697 15.777L18.3277 17.105C18.556 17.219 18.7321 17.416 18.8199 17.6556C18.9077 17.8952 18.9006 18.1593 18.8 18.3938C18.6995 18.6284 18.513 18.8156 18.2789 18.9171C18.0448 19.0187 17.7807 19.0268 17.5407 18.94L17.4337 18.894L14.7747 17.565C14.5254 17.4403 14.2527 17.3692 13.9742 17.3561C13.6958 17.343 13.4177 17.3883 13.1577 17.489L12.9857 17.565L11.6697 18.224C11.1496 18.4839 10.5792 18.6273 9.99802 18.6442C9.41687 18.6612 8.83902 18.5512 8.30471 18.322L8.09171 18.224L6.77471 17.565C6.52536 17.4403 6.25271 17.3692 5.97424 17.3561C5.69578 17.343 5.41765 17.3883 5.15771 17.489L4.98571 17.565L2.32771 18.895C2.09936 19.0105 1.83544 19.034 1.59025 18.9608C1.34507 18.8876 1.13729 18.7231 1.00967 18.5013C0.882056 18.2796 0.844317 18.0173 0.904222 17.7685C0.964128 17.5197 1.11712 17.3034 1.33171 17.164L1.43371 17.105L4.09171 15.776C4.61157 15.5161 5.18183 15.3726 5.76279 15.3555C6.34375 15.3384 6.92146 15.4481 7.45571 15.677L7.66971 15.777L8.98571 16.435C9.23519 16.5598 9.50802 16.631 9.78667 16.6441C10.0653 16.6572 10.3436 16.6119 10.6037 16.511L10.7747 16.435L12.0917 15.776ZM10.8807 0C11.1459 0 11.4003 0.105357 11.5878 0.292893C11.7754 0.48043 11.8807 0.734784 11.8807 1V2.32L15.2097 2.874C15.6765 2.95209 16.1005 3.1932 16.4063 3.55446C16.7121 3.91572 16.8798 4.37371 16.8797 4.847V8.279L18.9397 8.965C19.1038 9.01973 19.2547 9.10791 19.3829 9.22397C19.5112 9.34003 19.6139 9.48143 19.6847 9.63924C19.7555 9.79705 19.7927 9.96783 19.7941 10.1408C19.7955 10.3137 19.761 10.4851 19.6927 10.644L17.5237 15.704L15.6697 14.776C15.1142 14.4982 14.5017 14.3536 13.8807 14.3536C13.2597 14.3536 12.6472 14.4982 12.0917 14.776L10.7747 15.435C10.497 15.5739 10.1907 15.6462 9.88021 15.6462C9.56969 15.6462 9.26344 15.5739 8.98571 15.435L7.66971 14.776C7.11425 14.4982 6.50174 14.3536 5.88071 14.3536C5.25967 14.3536 4.64717 14.4982 4.09171 14.776L2.82171 15.412L0.163709 10.761C0.0719581 10.6004 0.0169792 10.4215 0.00273625 10.2371C-0.0115067 10.0527 0.0153412 9.86748 0.0813445 9.69472C0.147348 9.52197 0.250862 9.36601 0.384423 9.23809C0.517985 9.11017 0.678265 9.01349 0.853709 8.955L2.88071 8.279V4.847C2.88061 4.37371 3.04837 3.91572 3.35414 3.55446C3.65992 3.1932 4.0839 2.95209 4.55071 2.874L7.88071 2.32V1C7.88071 0.734784 7.98607 0.48043 8.1736 0.292893C8.36114 0.105357 8.61549 0 8.88071 0H10.8807ZM9.88071 4.014L4.88071 4.847V7.613L9.24771 6.157C9.65827 6.02014 10.1021 6.02014 10.5127 6.157L14.8807 7.613V4.847L9.88071 4.014Z" fill="#FF8600"/>
</svg>
