<svg width="20" height="20" viewBox="0 0 20 20" fill="none" xmlns="http://www.w3.org/2000/svg">
<rect x="0.25" y="0.25" width="19.5" height="19.5" rx="1.75" fill="#27187E"/>
<rect x="0.25" y="0.25" width="19.5" height="19.5" rx="1.75" stroke="#27187E" stroke-width="0.5"/>
<path d="M9.61914 5.42969H10.3809C10.4486 5.42969 10.4824 5.46354 10.4824 5.53125V14.4688C10.4824 14.5365 10.4486 14.5703 10.3809 14.5703H9.61914C9.55143 14.5703 9.51758 14.5365 9.51758 14.4688V5.53125C9.51758 5.46354 9.55143 5.42969 9.61914 5.42969Z" fill="white"/>
<path d="M5.73438 9.51758H14.2656C14.3333 9.51758 14.3672 9.55143 14.3672 9.61914V10.3809C14.3672 10.4486 14.3333 10.4824 14.2656 10.4824H5.73438C5.66667 10.4824 5.63281 10.4486 5.63281 10.3809V9.61914C5.63281 9.55143 5.66667 9.51758 5.73438 9.51758Z" fill="white"/>
</svg>
