<svg width="19" height="19" viewBox="0 0 19 19" fill="none" xmlns="http://www.w3.org/2000/svg">
<rect x="0.2" y="0.2" width="18.6" height="18.6" rx="1.8" fill="#E9EFF8"/>
<rect x="0.2" y="0.2" width="18.6" height="18.6" rx="1.8" stroke="#27187E" stroke-width="0.4"/>
<path d="M10.2132 9.5L13.8021 5.22207C13.8622 5.15098 13.8116 5.04297 13.7187 5.04297H12.6276C12.5634 5.04297 12.5019 5.07168 12.4595 5.1209L9.49952 8.64961L6.53956 5.1209C6.49855 5.07168 6.43702 5.04297 6.3714 5.04297H5.28038C5.18741 5.04297 5.13683 5.15098 5.19698 5.22207L8.78585 9.5L5.19698 13.7779C5.18351 13.7938 5.17486 13.8132 5.17208 13.8338C5.16929 13.8544 5.17247 13.8754 5.18125 13.8942C5.19003 13.9131 5.20404 13.929 5.22161 13.9402C5.23918 13.9513 5.25958 13.9571 5.28038 13.957H6.3714C6.43566 13.957 6.49718 13.9283 6.53956 13.8791L9.49952 10.3504L12.4595 13.8791C12.5005 13.9283 12.562 13.957 12.6276 13.957H13.7187C13.8116 13.957 13.8622 13.849 13.8021 13.7779L10.2132 9.5Z" fill="#27187E"/>
</svg>
