<svg width="18" height="18" viewBox="0 0 18 18" fill="none" xmlns="http://www.w3.org/2000/svg">
<circle cx="9" cy="9" r="8.8" fill="#F2F4FF" stroke="#F69230" stroke-width="0.4"/>
<path d="M11.8 5.73134C11.356 5.73134 11 6.10328 11 6.56716V9.39224C10.744 9.63045 10.6 9.97313 10.6 10.3284C10.6 11.0221 11.136 11.5821 11.8 11.5821C12.464 11.5821 13 11.0221 13 10.3284C13 9.97313 12.856 9.63045 12.6 9.39642V6.56716C12.6 6.10328 12.244 5.73134 11.8 5.73134ZM11.8 6.14925C12.02 6.14925 12.2 6.33731 12.2 6.56716V6.98507H11.4V6.56716C11.4 6.33731 11.58 6.14925 11.8 6.14925ZM7.4 12C6.076 12 5 10.8758 5 9.49254C5 7.8209 7.4 5 7.4 5C7.4 5 9.8 7.8209 9.8 9.49254C9.8 10.8758 8.724 12 7.4 12Z" fill="#F69230"/>
</svg>
