<svg width="18" height="18" viewBox="0 0 18 18" fill="none" xmlns="http://www.w3.org/2000/svg">
<g clip-path="url(#clip0_2083_18910)">
<path d="M9 5.25V9.75" stroke="#E95266" stroke-width="1.5" stroke-linecap="round"/>
<path d="M9 12.75C9.41421 12.75 9.75 12.4142 9.75 12C9.75 11.5858 9.41421 11.25 9 11.25C8.58579 11.25 8.25 11.5858 8.25 12C8.25 12.4142 8.58579 12.75 9 12.75Z" fill="#E95266"/>
<path d="M5.25 2.50351C6.38959 1.84405 7.68336 1.49784 9 1.50001C13.1422 1.50001 16.5 4.85776 16.5 9.00001C16.5 13.1423 13.1422 16.5 9 16.5C4.85775 16.5 1.5 13.1423 1.5 9.00001C1.5 7.63426 1.86525 6.35251 2.5035 5.25001" stroke="#E95266" stroke-width="1.5" stroke-linecap="round"/>
</g>
<defs>
<clipPath id="clip0_2083_18910">
<rect width="18" height="18" fill="white"/>
</clipPath>
</defs>
</svg>
