<svg width="17" height="19" viewBox="0 0 17 19" fill="none" xmlns="http://www.w3.org/2000/svg">
<path d="M10.5001 9.5V17.38C10.5401 17.68 10.4401 18 10.2101 18.21C10.1176 18.3027 10.0077 18.3762 9.88675 18.4264C9.76578 18.4766 9.6361 18.5024 9.50513 18.5024C9.37416 18.5024 9.24448 18.4766 9.12351 18.4264C9.00253 18.3762 8.89264 18.3027 8.80013 18.21L6.79013 16.2C6.68113 16.0933 6.59824 15.9629 6.54794 15.819C6.49763 15.675 6.48127 15.5213 6.50013 15.37V9.5H6.47013L0.710131 2.12C0.547739 1.91153 0.474465 1.64726 0.506319 1.38493C0.538173 1.1226 0.672566 0.883546 0.880131 0.72C1.07013 0.58 1.28013 0.5 1.50013 0.5H15.5001C15.7201 0.5 15.9301 0.58 16.1201 0.72C16.3277 0.883546 16.4621 1.1226 16.4939 1.38493C16.5258 1.64726 16.4525 1.91153 16.2901 2.12L10.5301 9.5H10.5001Z" fill="#74C5B5"/>
</svg>
