<svg width="18" height="18" viewBox="0 0 18 18" fill="none" xmlns="http://www.w3.org/2000/svg">
<circle cx="9" cy="9" r="8.8" fill="#F2F4FF" stroke="#F69230" stroke-width="0.4"/>
<path fill-rule="evenodd" clip-rule="evenodd" d="M5.75 12C5.75 11.9337 5.77634 11.8701 5.82322 11.8232C5.87011 11.7763 5.9337 11.75 6 11.75H12C12.0663 11.75 12.1299 11.7763 12.1768 11.8232C12.2237 11.8701 12.25 11.9337 12.25 12C12.25 12.0663 12.2237 12.1299 12.1768 12.1768C12.1299 12.2237 12.0663 12.25 12 12.25H6C5.9337 12.25 5.87011 12.2237 5.82322 12.1768C5.77634 12.1299 5.75 12.0663 5.75 12Z" fill="#F69230"/>
<path d="M7.5 8.75H6.5C6.36193 8.75 6.25 8.86193 6.25 9V12C6.25 12.1381 6.36193 12.25 6.5 12.25H7.5C7.63807 12.25 7.75 12.1381 7.75 12V9C7.75 8.86193 7.63807 8.75 7.5 8.75Z" fill="#F69230"/>
<path d="M9.5 5.75H8.5C8.36193 5.75 8.25 5.86193 8.25 6V12C8.25 12.1381 8.36193 12.25 8.5 12.25H9.5C9.63807 12.25 9.75 12.1381 9.75 12V6C9.75 5.86193 9.63807 5.75 9.5 5.75Z" fill="#F69230"/>
<path d="M11.5 7.25H10.5C10.3619 7.25 10.25 7.36193 10.25 7.5V12C10.25 12.1381 10.3619 12.25 10.5 12.25H11.5C11.6381 12.25 11.75 12.1381 11.75 12V7.5C11.75 7.36193 11.6381 7.25 11.5 7.25Z" fill="#F69230"/>
</svg>
