<svg width="9" height="12" viewBox="0 0 9 12" fill="none" xmlns="http://www.w3.org/2000/svg">
<path d="M9 1.35077V0.126917C9 0.0208385 8.85441 -0.037742 8.75609 0.0271714L0.232589 5.60181C0.16017 5.64897 0.101572 5.70936 0.0612627 5.77837C0.0209538 5.84737 0 5.92318 0 6C0 6.07682 0.0209538 6.15263 0.0612627 6.22163C0.101572 6.29064 0.16017 6.35103 0.232589 6.39819L8.75609 11.9728C8.8563 12.0377 9 11.9792 9 11.8731V10.6492C9 10.5716 8.95651 10.4972 8.88466 10.4497L2.07796 6.00079L8.88466 1.55026C8.95651 1.50276 9 1.42835 9 1.35077Z" fill="#F69230"/>
</svg>
