<svg width="312" height="58" viewBox="0 0 312 58" fill="none" xmlns="http://www.w3.org/2000/svg">
<path d="M10 0.349609H302C307.33 0.349609 311.65 4.67045 311.65 10V48C311.65 53.3296 307.33 57.6504 302 57.6504H10C4.67045 57.6504 0.349609 53.3295 0.349609 48V10L0.362305 9.50293C0.620996 4.40438 4.83716 0.34961 10 0.349609Z" fill="#E9EFF8" stroke="#27187E" stroke-width="0.7"/>
<path d="M31.504 25V13.8H36.752C38.096 13.8 39.12 14.0667 39.824 14.6C40.528 15.1227 40.88 15.8267 40.88 16.712C40.88 17.3093 40.7413 17.8213 40.464 18.248C40.1867 18.664 39.8133 18.9893 39.344 19.224C38.8853 19.448 38.384 19.56 37.84 19.56L38.128 18.984C38.7573 18.984 39.3227 19.1013 39.824 19.336C40.3253 19.56 40.72 19.8907 41.008 20.328C41.3067 20.7653 41.456 21.3093 41.456 21.96C41.456 22.92 41.088 23.6667 40.352 24.2C39.616 24.7333 38.5227 25 37.072 25H31.504ZM33.584 23.368H36.944C37.7227 23.368 38.32 23.24 38.736 22.984C39.152 22.728 39.36 22.3173 39.36 21.752C39.36 21.1973 39.152 20.792 38.736 20.536C38.32 20.2693 37.7227 20.136 36.944 20.136H33.424V18.52H36.528C37.2533 18.52 37.808 18.392 38.192 18.136C38.5867 17.88 38.784 17.496 38.784 16.984C38.784 16.4613 38.5867 16.072 38.192 15.816C37.808 15.56 37.2533 15.432 36.528 15.432H33.584V23.368ZM48.7479 25V23.272L48.6359 22.904V19.88C48.6359 19.2933 48.4599 18.84 48.1079 18.52C47.7559 18.1893 47.2225 18.024 46.5079 18.024C46.0279 18.024 45.5532 18.0987 45.0839 18.248C44.6252 18.3973 44.2359 18.6053 43.9159 18.872L43.1319 17.416C43.5905 17.064 44.1345 16.8027 44.7639 16.632C45.4039 16.4507 46.0652 16.36 46.7479 16.36C47.9852 16.36 48.9399 16.6587 49.6119 17.256C50.2945 17.8427 50.6359 18.7547 50.6359 19.992V25H48.7479ZM46.0599 25.112C45.4199 25.112 44.8599 25.0053 44.3799 24.792C43.8999 24.568 43.5265 24.264 43.2599 23.88C43.0039 23.4853 42.8759 23.0427 42.8759 22.552C42.8759 22.072 42.9879 21.64 43.2119 21.256C43.4465 20.872 43.8252 20.568 44.3479 20.344C44.8705 20.12 45.5639 20.008 46.4279 20.008H48.9079V21.336H46.5719C45.8892 21.336 45.4305 21.448 45.1959 21.672C44.9612 21.8853 44.8439 22.152 44.8439 22.472C44.8439 22.8347 44.9879 23.1227 45.2759 23.336C45.5639 23.5493 45.9639 23.656 46.4759 23.656C46.9665 23.656 47.4039 23.544 47.7879 23.32C48.1825 23.096 48.4652 22.7653 48.6359 22.328L48.9719 23.528C48.7799 24.0293 48.4332 24.4187 47.9319 24.696C47.4412 24.9733 46.8172 25.112 46.0599 25.112ZM53.2026 25V13.128H55.2026V25H53.2026ZM61.4655 25.112C60.5268 25.112 59.8015 24.872 59.2895 24.392C58.7775 23.9013 58.5215 23.1813 58.5215 22.232V14.568H60.5215V22.184C60.5215 22.5893 60.6228 22.904 60.8255 23.128C61.0388 23.352 61.3322 23.464 61.7055 23.464C62.1535 23.464 62.5268 23.3467 62.8255 23.112L63.3855 24.536C63.1508 24.728 62.8628 24.872 62.5215 24.968C62.1802 25.064 61.8282 25.112 61.4655 25.112ZM57.1135 18.12V16.52H62.8095V18.12H57.1135ZM65.0308 25V16.456H67.0308V25H65.0308ZM66.0388 15.048C65.6654 15.048 65.3561 14.9307 65.1108 14.696C64.8761 14.4613 64.7588 14.1787 64.7588 13.848C64.7588 13.5067 64.8761 13.224 65.1108 13C65.3561 12.7653 65.6654 12.648 66.0388 12.648C66.4121 12.648 66.7161 12.76 66.9508 12.984C67.1961 13.1973 67.3188 13.4693 67.3188 13.8C67.3188 14.152 67.2014 14.4507 66.9668 14.696C66.7321 14.9307 66.4228 15.048 66.0388 15.048ZM73.5758 25.112C72.6798 25.112 71.8798 24.9253 71.1758 24.552C70.4824 24.168 69.9384 23.6453 69.5438 22.984C69.1491 22.3227 68.9518 21.5707 68.9518 20.728C68.9518 19.8747 69.1491 19.1227 69.5438 18.472C69.9384 17.8107 70.4824 17.2933 71.1758 16.92C71.8798 16.5467 72.6798 16.36 73.5758 16.36C74.4078 16.36 75.1384 16.5307 75.7678 16.872C76.4078 17.2027 76.8931 17.6933 77.2238 18.344L75.6878 19.24C75.4318 18.8347 75.1171 18.536 74.7438 18.344C74.3811 18.152 73.9864 18.056 73.5598 18.056C73.0691 18.056 72.6264 18.1627 72.2318 18.376C71.8371 18.5893 71.5278 18.8987 71.3038 19.304C71.0798 19.6987 70.9678 20.1733 70.9678 20.728C70.9678 21.2827 71.0798 21.7627 71.3038 22.168C71.5278 22.5627 71.8371 22.8667 72.2318 23.08C72.6264 23.2933 73.0691 23.4 73.5598 23.4C73.9864 23.4 74.3811 23.304 74.7438 23.112C75.1171 22.92 75.4318 22.6213 75.6878 22.216L77.2238 23.112C76.8931 23.752 76.4078 24.248 75.7678 24.6C75.1384 24.9413 74.4078 25.112 73.5758 25.112ZM87.0385 25.16C86.1638 25.16 85.3265 25.0373 84.5265 24.792C83.7265 24.536 83.0918 24.2107 82.6225 23.816L83.3425 22.2C83.7905 22.552 84.3452 22.8453 85.0065 23.08C85.6678 23.3147 86.3452 23.432 87.0385 23.432C87.6252 23.432 88.0998 23.368 88.4625 23.24C88.8252 23.112 89.0918 22.9413 89.2625 22.728C89.4332 22.504 89.5185 22.2533 89.5185 21.976C89.5185 21.6347 89.3958 21.3627 89.1505 21.16C88.9052 20.9467 88.5852 20.7813 88.1905 20.664C87.8065 20.536 87.3745 20.4187 86.8945 20.312C86.4252 20.2053 85.9505 20.0827 85.4705 19.944C85.0012 19.7947 84.5692 19.608 84.1745 19.384C83.7905 19.1493 83.4758 18.84 83.2305 18.456C82.9852 18.072 82.8625 17.5813 82.8625 16.984C82.8625 16.376 83.0225 15.8213 83.3425 15.32C83.6732 14.808 84.1692 14.4027 84.8305 14.104C85.5025 13.7947 86.3505 13.64 87.3745 13.64C88.0465 13.64 88.7132 13.7253 89.3745 13.896C90.0358 14.0667 90.6118 14.312 91.1025 14.632L90.4465 16.248C89.9452 15.9493 89.4278 15.7307 88.8945 15.592C88.3612 15.4427 87.8492 15.368 87.3585 15.368C86.7825 15.368 86.3132 15.4373 85.9505 15.576C85.5985 15.7147 85.3372 15.896 85.1665 16.12C85.0065 16.344 84.9265 16.6 84.9265 16.888C84.9265 17.2293 85.0438 17.5067 85.2785 17.72C85.5238 17.9227 85.8385 18.0827 86.2225 18.2C86.6172 18.3173 87.0545 18.4347 87.5345 18.552C88.0145 18.6587 88.4892 18.7813 88.9585 18.92C89.4385 19.0587 89.8705 19.24 90.2545 19.464C90.6492 19.688 90.9638 19.992 91.1985 20.376C91.4438 20.76 91.5665 21.2453 91.5665 21.832C91.5665 22.4293 91.4012 22.984 91.0705 23.496C90.7505 23.9973 90.2545 24.4027 89.5825 24.712C88.9105 25.0107 88.0625 25.16 87.0385 25.16ZM97.453 25.112C96.5037 25.112 95.6717 24.9253 94.957 24.552C94.253 24.168 93.7037 23.6453 93.309 22.984C92.925 22.3227 92.733 21.5707 92.733 20.728C92.733 19.8747 92.9197 19.1227 93.293 18.472C93.677 17.8107 94.1997 17.2933 94.861 16.92C95.533 16.5467 96.2957 16.36 97.149 16.36C97.981 16.36 98.7223 16.5413 99.373 16.904C100.024 17.2667 100.536 17.7787 100.909 18.44C101.282 19.1013 101.469 19.88 101.469 20.776C101.469 20.8613 101.464 20.9573 101.453 21.064C101.453 21.1707 101.448 21.272 101.437 21.368H94.317V20.04H100.381L99.597 20.456C99.6077 19.9653 99.5063 19.5333 99.293 19.16C99.0797 18.7867 98.7863 18.4933 98.413 18.28C98.0503 18.0667 97.629 17.96 97.149 17.96C96.6583 17.96 96.2263 18.0667 95.853 18.28C95.4903 18.4933 95.2023 18.792 94.989 19.176C94.7863 19.5493 94.685 19.992 94.685 20.504V20.824C94.685 21.336 94.8023 21.7893 95.037 22.184C95.2717 22.5787 95.6023 22.8827 96.029 23.096C96.4557 23.3093 96.9463 23.416 97.501 23.416C97.981 23.416 98.413 23.3413 98.797 23.192C99.181 23.0427 99.5223 22.808 99.821 22.488L100.893 23.72C100.509 24.168 100.024 24.5147 99.437 24.76C98.861 24.9947 98.1997 25.112 97.453 25.112ZM108.42 25V23.272L108.308 22.904V19.88C108.308 19.2933 108.132 18.84 107.78 18.52C107.428 18.1893 106.894 18.024 106.18 18.024C105.7 18.024 105.225 18.0987 104.756 18.248C104.297 18.3973 103.908 18.6053 103.588 18.872L102.804 17.416C103.262 17.064 103.806 16.8027 104.436 16.632C105.076 16.4507 105.737 16.36 106.42 16.36C107.657 16.36 108.612 16.6587 109.284 17.256C109.966 17.8427 110.308 18.7547 110.308 19.992V25H108.42ZM105.732 25.112C105.092 25.112 104.532 25.0053 104.052 24.792C103.572 24.568 103.198 24.264 102.932 23.88C102.676 23.4853 102.548 23.0427 102.548 22.552C102.548 22.072 102.66 21.64 102.884 21.256C103.118 20.872 103.497 20.568 104.02 20.344C104.542 20.12 105.236 20.008 106.1 20.008H108.58V21.336H106.244C105.561 21.336 105.102 21.448 104.868 21.672C104.633 21.8853 104.516 22.152 104.516 22.472C104.516 22.8347 104.66 23.1227 104.948 23.336C105.236 23.5493 105.636 23.656 106.148 23.656C106.638 23.656 107.076 23.544 107.46 23.32C107.854 23.096 108.137 22.7653 108.308 22.328L108.644 23.528C108.452 24.0293 108.105 24.4187 107.604 24.696C107.113 24.9733 106.489 25.112 105.732 25.112ZM115.904 25L120.944 13.8H122.992L128.048 25H125.872L121.536 14.904H122.368L118.048 25H115.904ZM118.224 22.408L118.784 20.776H124.832L125.392 22.408H118.224ZM132.419 25.112C131.48 25.112 130.755 24.872 130.243 24.392C129.731 23.9013 129.475 23.1813 129.475 22.232V14.568H131.475V22.184C131.475 22.5893 131.576 22.904 131.779 23.128C131.992 23.352 132.285 23.464 132.659 23.464C133.107 23.464 133.48 23.3467 133.779 23.112L134.339 24.536C134.104 24.728 133.816 24.872 133.475 24.968C133.133 25.064 132.781 25.112 132.419 25.112ZM128.067 18.12V16.52H133.763V18.12H128.067ZM143.51 25.16C142.72 25.16 141.947 25.048 141.19 24.824C140.443 24.5893 139.814 24.2693 139.302 23.864L140.182 22.248C140.587 22.5787 141.078 22.8453 141.654 23.048C142.24 23.2507 142.848 23.352 143.478 23.352C144.214 23.352 144.79 23.1973 145.206 22.888C145.632 22.5787 145.846 22.1627 145.846 21.64C145.846 21.288 145.755 20.9787 145.574 20.712C145.403 20.4453 145.094 20.2427 144.646 20.104C144.208 19.9653 143.606 19.896 142.838 19.896H140.134L140.71 13.8H147.286V15.544H141.478L142.566 14.552L142.134 19.112L141.046 18.136H143.302C144.411 18.136 145.302 18.2853 145.974 18.584C146.656 18.872 147.152 19.2773 147.462 19.8C147.782 20.312 147.942 20.8987 147.942 21.56C147.942 22.2107 147.782 22.808 147.462 23.352C147.142 23.896 146.651 24.3333 145.99 24.664C145.339 24.9947 144.512 25.16 143.51 25.16ZM150.39 25.112C150.027 25.112 149.718 24.9893 149.462 24.744C149.206 24.488 149.078 24.168 149.078 23.784C149.078 23.3787 149.206 23.0587 149.462 22.824C149.718 22.5787 150.027 22.456 150.39 22.456C150.752 22.456 151.062 22.5787 151.318 22.824C151.574 23.0587 151.702 23.3787 151.702 23.784C151.702 24.168 151.574 24.488 151.318 24.744C151.062 24.9893 150.752 25.112 150.39 25.112ZM156.76 25.16C155.97 25.16 155.197 25.048 154.44 24.824C153.693 24.5893 153.064 24.2693 152.552 23.864L153.432 22.248C153.837 22.5787 154.328 22.8453 154.904 23.048C155.49 23.2507 156.098 23.352 156.728 23.352C157.464 23.352 158.04 23.1973 158.456 22.888C158.882 22.5787 159.096 22.1627 159.096 21.64C159.096 21.288 159.005 20.9787 158.824 20.712C158.653 20.4453 158.344 20.2427 157.896 20.104C157.458 19.9653 156.856 19.896 156.088 19.896H153.384L153.96 13.8H160.536V15.544H154.728L155.816 14.552L155.384 19.112L154.296 18.136H156.552C157.661 18.136 158.552 18.2853 159.224 18.584C159.906 18.872 160.402 19.2773 160.712 19.8C161.032 20.312 161.192 20.8987 161.192 21.56C161.192 22.2107 161.032 22.808 160.712 23.352C160.392 23.896 159.901 24.3333 159.24 24.664C158.589 24.9947 157.762 25.16 156.76 25.16ZM167.24 25.16C166.226 25.16 165.357 24.9467 164.632 24.52C163.906 24.0827 163.352 23.4533 162.968 22.632C162.584 21.8107 162.392 20.7973 162.392 19.592C162.392 18.312 162.621 17.2293 163.08 16.344C163.549 15.4587 164.194 14.7867 165.016 14.328C165.848 13.8693 166.802 13.64 167.88 13.64C168.445 13.64 168.984 13.6987 169.496 13.816C170.018 13.9333 170.461 14.1147 170.824 14.36L170.056 15.928C169.746 15.7253 169.41 15.5867 169.048 15.512C168.696 15.4267 168.322 15.384 167.928 15.384C166.872 15.384 166.034 15.7093 165.416 16.36C164.797 17.0107 164.488 17.9707 164.488 19.24C164.488 19.4427 164.493 19.6827 164.504 19.96C164.514 20.2267 164.552 20.4987 164.616 20.776L163.976 20.072C164.168 19.6347 164.429 19.272 164.76 18.984C165.101 18.6853 165.501 18.4613 165.96 18.312C166.429 18.1627 166.936 18.088 167.48 18.088C168.216 18.088 168.872 18.232 169.448 18.52C170.024 18.7973 170.482 19.1973 170.824 19.72C171.165 20.232 171.336 20.8347 171.336 21.528C171.336 22.264 171.154 22.904 170.792 23.448C170.429 23.992 169.938 24.4133 169.32 24.712C168.701 25.0107 168.008 25.16 167.24 25.16ZM167.128 23.528C167.554 23.528 167.933 23.4533 168.264 23.304C168.594 23.144 168.85 22.92 169.032 22.632C169.224 22.344 169.32 22.008 169.32 21.624C169.32 21.0373 169.117 20.5733 168.712 20.232C168.306 19.8907 167.762 19.72 167.08 19.72C166.632 19.72 166.237 19.8053 165.896 19.976C165.565 20.136 165.298 20.36 165.096 20.648C164.904 20.936 164.808 21.2667 164.808 21.64C164.808 21.9813 164.898 22.296 165.08 22.584C165.261 22.872 165.522 23.1013 165.864 23.272C166.216 23.4427 166.637 23.528 167.128 23.528ZM179.501 22.36L179.389 19.896L185.261 13.8H187.597L182.717 18.984L181.565 20.248L179.501 22.36ZM177.645 25V13.8H179.725V25H177.645ZM185.453 25L181.165 19.896L182.541 18.376L187.885 25H185.453ZM199.737 16.36C200.419 16.36 201.022 16.4933 201.545 16.76C202.078 17.0267 202.494 17.4373 202.793 17.992C203.091 18.536 203.241 19.24 203.241 20.104V25H201.241V20.36C201.241 19.6027 201.075 19.0373 200.745 18.664C200.414 18.2907 199.939 18.104 199.321 18.104C198.883 18.104 198.494 18.2 198.153 18.392C197.822 18.584 197.561 18.8667 197.369 19.24C197.187 19.6133 197.097 20.088 197.097 20.664V25H195.097V20.36C195.097 19.6027 194.931 19.0373 194.601 18.664C194.27 18.2907 193.795 18.104 193.177 18.104C192.739 18.104 192.35 18.2 192.009 18.392C191.678 18.584 191.417 18.8667 191.225 19.24C191.043 19.6133 190.953 20.088 190.953 20.664V25H188.953V16.456H190.857V18.728L190.521 18.056C190.809 17.5013 191.225 17.08 191.769 16.792C192.323 16.504 192.953 16.36 193.657 16.36C194.457 16.36 195.15 16.5573 195.737 16.952C196.334 17.3467 196.729 17.944 196.921 18.744L196.137 18.472C196.414 17.832 196.873 17.32 197.513 16.936C198.153 16.552 198.894 16.36 199.737 16.36ZM204.004 26.6L209.284 11.528H211.076L205.796 26.6H204.004ZM216.582 16.36C217.265 16.36 217.873 16.4933 218.406 16.76C218.95 17.0267 219.377 17.4373 219.686 17.992C219.995 18.536 220.15 19.24 220.15 20.104V25H218.15V20.36C218.15 19.6027 217.969 19.0373 217.606 18.664C217.254 18.2907 216.758 18.104 216.118 18.104C215.649 18.104 215.233 18.2 214.87 18.392C214.507 18.584 214.225 18.872 214.022 19.256C213.83 19.6293 213.734 20.104 213.734 20.68V25H211.734V13.128H213.734V18.76L213.302 18.056C213.601 17.512 214.033 17.096 214.598 16.808C215.174 16.5093 215.835 16.36 216.582 16.36ZM225.317 26.6L230.597 11.528H232.389L227.109 26.6H225.317ZM234.715 25V14.6L235.627 15.544H232.347V13.8H236.795V25H234.715ZM243.689 25.16C242.803 25.16 242.003 24.936 241.289 24.488C240.585 24.04 240.03 23.3893 239.625 22.536C239.219 21.672 239.017 20.6267 239.017 19.4C239.017 18.1733 239.219 17.1333 239.625 16.28C240.03 15.416 240.585 14.76 241.289 14.312C242.003 13.864 242.803 13.64 243.689 13.64C244.585 13.64 245.385 13.864 246.089 14.312C246.793 14.76 247.347 15.416 247.753 16.28C248.169 17.1333 248.377 18.1733 248.377 19.4C248.377 20.6267 248.169 21.672 247.753 22.536C247.347 23.3893 246.793 24.04 246.089 24.488C245.385 24.936 244.585 25.16 243.689 25.16ZM243.689 23.352C244.211 23.352 244.665 23.2133 245.049 22.936C245.433 22.648 245.731 22.2107 245.945 21.624C246.169 21.0373 246.281 20.296 246.281 19.4C246.281 18.4933 246.169 17.752 245.945 17.176C245.731 16.5893 245.433 16.1573 245.049 15.88C244.665 15.592 244.211 15.448 243.689 15.448C243.187 15.448 242.739 15.592 242.345 15.88C241.961 16.1573 241.657 16.5893 241.433 17.176C241.219 17.752 241.113 18.4933 241.113 19.4C241.113 20.296 241.219 21.0373 241.433 21.624C241.657 22.2107 241.961 22.648 242.345 22.936C242.739 23.2133 243.187 23.352 243.689 23.352ZM254.454 25.16C253.569 25.16 252.769 24.936 252.054 24.488C251.35 24.04 250.795 23.3893 250.39 22.536C249.985 21.672 249.782 20.6267 249.782 19.4C249.782 18.1733 249.985 17.1333 250.39 16.28C250.795 15.416 251.35 14.76 252.054 14.312C252.769 13.864 253.569 13.64 254.454 13.64C255.35 13.64 256.15 13.864 256.854 14.312C257.558 14.76 258.113 15.416 258.518 16.28C258.934 17.1333 259.142 18.1733 259.142 19.4C259.142 20.6267 258.934 21.672 258.518 22.536C258.113 23.3893 257.558 24.04 256.854 24.488C256.15 24.936 255.35 25.16 254.454 25.16ZM254.454 23.352C254.977 23.352 255.43 23.2133 255.814 22.936C256.198 22.648 256.497 22.2107 256.71 21.624C256.934 21.0373 257.046 20.296 257.046 19.4C257.046 18.4933 256.934 17.752 256.71 17.176C256.497 16.5893 256.198 16.1573 255.814 15.88C255.43 15.592 254.977 15.448 254.454 15.448C253.953 15.448 253.505 15.592 253.11 15.88C252.726 16.1573 252.422 16.5893 252.198 17.176C251.985 17.752 251.878 18.4933 251.878 19.4C251.878 20.296 251.985 21.0373 252.198 21.624C252.422 22.2107 252.726 22.648 253.11 22.936C253.505 23.2133 253.953 23.352 254.454 23.352ZM261.608 25.112C261.246 25.112 260.936 24.9893 260.68 24.744C260.424 24.488 260.296 24.168 260.296 23.784C260.296 23.3787 260.424 23.0587 260.68 22.824C260.936 22.5787 261.246 22.456 261.608 22.456C261.971 22.456 262.28 22.5787 262.536 22.824C262.792 23.0587 262.92 23.3787 262.92 23.784C262.92 24.168 262.792 24.488 262.536 24.744C262.28 24.9893 261.971 25.112 261.608 25.112ZM268.043 13.64C269.067 13.64 269.936 13.8587 270.651 14.296C271.376 14.7227 271.931 15.3467 272.315 16.168C272.699 16.9893 272.891 18.0027 272.891 19.208C272.891 20.488 272.656 21.5707 272.187 22.456C271.728 23.3413 271.088 24.0133 270.267 24.472C269.445 24.9307 268.491 25.16 267.403 25.16C266.837 25.16 266.299 25.1013 265.787 24.984C265.275 24.8667 264.832 24.6853 264.459 24.44L265.227 22.872C265.536 23.0747 265.872 23.2187 266.235 23.304C266.597 23.3787 266.971 23.416 267.355 23.416C268.411 23.416 269.248 23.0907 269.867 22.44C270.485 21.7893 270.795 20.8293 270.795 19.56C270.795 19.3573 270.789 19.1227 270.779 18.856C270.768 18.5787 270.731 18.3013 270.667 18.024L271.307 18.728C271.125 19.1653 270.864 19.5333 270.523 19.832C270.181 20.12 269.781 20.3387 269.323 20.488C268.864 20.6373 268.357 20.712 267.803 20.712C267.077 20.712 266.421 20.5733 265.835 20.296C265.259 20.008 264.8 19.608 264.459 19.096C264.117 18.5733 263.947 17.9653 263.947 17.272C263.947 16.5253 264.128 15.8853 264.491 15.352C264.853 14.808 265.344 14.3867 265.963 14.088C266.592 13.7893 267.285 13.64 268.043 13.64ZM268.155 15.272C267.728 15.272 267.349 15.352 267.019 15.512C266.688 15.6613 266.427 15.88 266.235 16.168C266.053 16.4453 265.963 16.7813 265.963 17.176C265.963 17.7627 266.165 18.2267 266.571 18.568C266.976 18.9093 267.52 19.08 268.203 19.08C268.651 19.08 269.045 19 269.387 18.84C269.728 18.6693 269.995 18.44 270.187 18.152C270.379 17.8533 270.475 17.5227 270.475 17.16C270.475 16.808 270.384 16.4933 270.203 16.216C270.021 15.928 269.76 15.6987 269.419 15.528C269.077 15.3573 268.656 15.272 268.155 15.272Z" fill="#27187E"/>
<path d="M35.016 45.096C34.376 45.096 33.784 44.992 33.24 44.784C32.704 44.568 32.236 44.268 31.836 43.884C31.444 43.492 31.136 43.036 30.912 42.516C30.688 41.996 30.576 41.424 30.576 40.8C30.576 40.176 30.688 39.604 30.912 39.084C31.136 38.564 31.448 38.112 31.848 37.728C32.248 37.336 32.716 37.036 33.252 36.828C33.796 36.612 34.388 36.504 35.028 36.504C35.676 36.504 36.272 36.616 36.816 36.84C37.368 37.056 37.836 37.38 38.22 37.812L37.44 38.568C37.12 38.232 36.76 37.984 36.36 37.824C35.96 37.656 35.532 37.572 35.076 37.572C34.604 37.572 34.164 37.652 33.756 37.812C33.356 37.972 33.008 38.196 32.712 38.484C32.416 38.772 32.184 39.116 32.016 39.516C31.856 39.908 31.776 40.336 31.776 40.8C31.776 41.264 31.856 41.696 32.016 42.096C32.184 42.488 32.416 42.828 32.712 43.116C33.008 43.404 33.356 43.628 33.756 43.788C34.164 43.948 34.604 44.028 35.076 44.028C35.532 44.028 35.96 43.948 36.36 43.788C36.76 43.62 37.12 43.364 37.44 43.02L38.22 43.776C37.836 44.208 37.368 44.536 36.816 44.76C36.272 44.984 35.672 45.096 35.016 45.096ZM42.2407 45.072C41.6967 45.072 41.2167 44.972 40.8007 44.772C40.3927 44.572 40.0727 44.268 39.8407 43.86C39.6167 43.444 39.5047 42.924 39.5047 42.3V38.64H40.6567V42.168C40.6567 42.792 40.8047 43.26 41.1007 43.572C41.4047 43.884 41.8287 44.04 42.3727 44.04C42.7727 44.04 43.1207 43.96 43.4167 43.8C43.7127 43.632 43.9407 43.392 44.1007 43.08C44.2607 42.76 44.3407 42.376 44.3407 41.928V38.64H45.4927V45H44.4007V43.284L44.5807 43.74C44.3727 44.164 44.0607 44.492 43.6447 44.724C43.2287 44.956 42.7607 45.072 42.2407 45.072ZM47.6858 45V38.64H48.7898V40.368L48.6818 39.936C48.8578 39.496 49.1538 39.16 49.5698 38.928C49.9858 38.696 50.4978 38.58 51.1058 38.58V39.696C51.0578 39.688 51.0098 39.684 50.9618 39.684C50.9218 39.684 50.8818 39.684 50.8418 39.684C50.2258 39.684 49.7378 39.868 49.3778 40.236C49.0178 40.604 48.8378 41.136 48.8378 41.832V45H47.6858ZM52.5256 45V38.64H53.6296V40.368L53.5216 39.936C53.6976 39.496 53.9936 39.16 54.4096 38.928C54.8256 38.696 55.3376 38.58 55.9456 38.58V39.696C55.8976 39.688 55.8496 39.684 55.8016 39.684C55.7616 39.684 55.7216 39.684 55.6816 39.684C55.0656 39.684 54.5776 39.868 54.2176 40.236C53.8576 40.604 53.6776 41.136 53.6776 41.832V45H52.5256ZM60.1388 45.072C59.4588 45.072 58.8588 44.932 58.3388 44.652C57.8268 44.372 57.4268 43.988 57.1388 43.5C56.8588 43.012 56.7188 42.452 56.7188 41.82C56.7188 41.188 56.8548 40.628 57.1268 40.14C57.4068 39.652 57.7868 39.272 58.2668 39C58.7548 38.72 59.3028 38.58 59.9108 38.58C60.5268 38.58 61.0708 38.716 61.5428 38.988C62.0148 39.26 62.3828 39.644 62.6468 40.14C62.9188 40.628 63.0548 41.2 63.0548 41.856C63.0548 41.904 63.0508 41.96 63.0428 42.024C63.0428 42.088 63.0388 42.148 63.0308 42.204H57.6188V41.376H62.4308L61.9628 41.664C61.9708 41.256 61.8868 40.892 61.7108 40.572C61.5348 40.252 61.2908 40.004 60.9788 39.828C60.6748 39.644 60.3188 39.552 59.9108 39.552C59.5108 39.552 59.1548 39.644 58.8428 39.828C58.5308 40.004 58.2868 40.256 58.1108 40.584C57.9348 40.904 57.8468 41.272 57.8468 41.688V41.88C57.8468 42.304 57.9428 42.684 58.1348 43.02C58.3348 43.348 58.6108 43.604 58.9628 43.788C59.3148 43.972 59.7188 44.064 60.1748 44.064C60.5508 44.064 60.8908 44 61.1948 43.872C61.5068 43.744 61.7788 43.552 62.0108 43.296L62.6468 44.04C62.3588 44.376 61.9988 44.632 61.5668 44.808C61.1428 44.984 60.6668 45.072 60.1388 45.072ZM68.0505 38.58C68.5705 38.58 69.0265 38.68 69.4185 38.88C69.8185 39.08 70.1305 39.384 70.3545 39.792C70.5785 40.2 70.6905 40.716 70.6905 41.34V45H69.5385V41.472C69.5385 40.856 69.3865 40.392 69.0825 40.08C68.7865 39.768 68.3665 39.612 67.8225 39.612C67.4145 39.612 67.0585 39.692 66.7545 39.852C66.4505 40.012 66.2145 40.248 66.0465 40.56C65.8865 40.872 65.8065 41.26 65.8065 41.724V45H64.6545V38.64H65.7585V40.356L65.5785 39.9C65.7865 39.484 66.1065 39.16 66.5385 38.928C66.9705 38.696 67.4745 38.58 68.0505 38.58ZM75.0065 45.072C74.3665 45.072 73.8705 44.9 73.5185 44.556C73.1665 44.212 72.9905 43.72 72.9905 43.08V37.248H74.1425V43.032C74.1425 43.376 74.2265 43.64 74.3945 43.824C74.5705 44.008 74.8185 44.1 75.1385 44.1C75.4985 44.1 75.7985 44 76.0385 43.8L76.3985 44.628C76.2225 44.78 76.0105 44.892 75.7625 44.964C75.5225 45.036 75.2705 45.072 75.0065 45.072ZM71.9105 39.588V38.64H75.9665V39.588H71.9105ZM81.1819 45V36.6H84.4579C85.1939 36.6 85.8219 36.716 86.3419 36.948C86.8619 37.18 87.2619 37.516 87.5419 37.956C87.8219 38.396 87.9619 38.92 87.9619 39.528C87.9619 40.136 87.8219 40.66 87.5419 41.1C87.2619 41.532 86.8619 41.868 86.3419 42.108C85.8219 42.34 85.1939 42.456 84.4579 42.456H81.8419L82.3819 41.892V45H81.1819ZM82.3819 42.012L81.8419 41.412H84.4219C85.1899 41.412 85.7699 41.248 86.1619 40.92C86.5619 40.592 86.7619 40.128 86.7619 39.528C86.7619 38.928 86.5619 38.464 86.1619 38.136C85.7699 37.808 85.1899 37.644 84.4219 37.644H81.8419L82.3819 37.044V42.012ZM92.2574 45.072C91.6174 45.072 91.0494 44.932 90.5534 44.652C90.0574 44.372 89.6654 43.988 89.3774 43.5C89.0894 43.004 88.9454 42.444 88.9454 41.82C88.9454 41.188 89.0894 40.628 89.3774 40.14C89.6654 39.652 90.0574 39.272 90.5534 39C91.0494 38.72 91.6174 38.58 92.2574 38.58C92.8894 38.58 93.4534 38.72 93.9494 39C94.4534 39.272 94.8454 39.652 95.1254 40.14C95.4134 40.62 95.5574 41.18 95.5574 41.82C95.5574 42.452 95.4134 43.012 95.1254 43.5C94.8454 43.988 94.4534 44.372 93.9494 44.652C93.4534 44.932 92.8894 45.072 92.2574 45.072ZM92.2574 44.064C92.6654 44.064 93.0294 43.972 93.3494 43.788C93.6774 43.604 93.9334 43.344 94.1174 43.008C94.3014 42.664 94.3934 42.268 94.3934 41.82C94.3934 41.364 94.3014 40.972 94.1174 40.644C93.9334 40.308 93.6774 40.048 93.3494 39.864C93.0294 39.68 92.6654 39.588 92.2574 39.588C91.8494 39.588 91.4854 39.68 91.1654 39.864C90.8454 40.048 90.5894 40.308 90.3974 40.644C90.2054 40.972 90.1094 41.364 90.1094 41.82C90.1094 42.268 90.2054 42.664 90.3974 43.008C90.5894 43.344 90.8454 43.604 91.1654 43.788C91.4854 43.972 91.8494 44.064 92.2574 44.064ZM98.9746 45.072C98.4466 45.072 97.9426 45 97.4626 44.856C96.9906 44.712 96.6186 44.536 96.3466 44.328L96.8266 43.416C97.0986 43.6 97.4346 43.756 97.8346 43.884C98.2346 44.012 98.6426 44.076 99.0586 44.076C99.5946 44.076 99.9786 44 100.211 43.848C100.451 43.696 100.571 43.484 100.571 43.212C100.571 43.012 100.499 42.856 100.355 42.744C100.211 42.632 100.019 42.548 99.7786 42.492C99.5466 42.436 99.2866 42.388 98.9986 42.348C98.7106 42.3 98.4226 42.244 98.1346 42.18C97.8466 42.108 97.5826 42.012 97.3426 41.892C97.1026 41.764 96.9106 41.592 96.7666 41.376C96.6226 41.152 96.5506 40.856 96.5506 40.488C96.5506 40.104 96.6586 39.768 96.8746 39.48C97.0906 39.192 97.3946 38.972 97.7866 38.82C98.1866 38.66 98.6586 38.58 99.2026 38.58C99.6186 38.58 100.039 38.632 100.463 38.736C100.895 38.832 101.247 38.972 101.519 39.156L101.027 40.068C100.739 39.876 100.439 39.744 100.127 39.672C99.8146 39.6 99.5026 39.564 99.1906 39.564C98.6866 39.564 98.3106 39.648 98.0626 39.816C97.8146 39.976 97.6906 40.184 97.6906 40.44C97.6906 40.656 97.7626 40.824 97.9066 40.944C98.0586 41.056 98.2506 41.144 98.4826 41.208C98.7226 41.272 98.9866 41.328 99.2746 41.376C99.5626 41.416 99.8506 41.472 100.139 41.544C100.427 41.608 100.687 41.7 100.919 41.82C101.159 41.94 101.351 42.108 101.495 42.324C101.647 42.54 101.723 42.828 101.723 43.188C101.723 43.572 101.611 43.904 101.387 44.184C101.163 44.464 100.847 44.684 100.439 44.844C100.031 44.996 99.5426 45.072 98.9746 45.072ZM103.162 45V38.64H104.314V45H103.162ZM103.738 37.416C103.514 37.416 103.326 37.344 103.174 37.2C103.03 37.056 102.958 36.88 102.958 36.672C102.958 36.456 103.03 36.276 103.174 36.132C103.326 35.988 103.514 35.916 103.738 35.916C103.962 35.916 104.146 35.988 104.29 36.132C104.442 36.268 104.518 36.44 104.518 36.648C104.518 36.864 104.446 37.048 104.302 37.2C104.158 37.344 103.97 37.416 103.738 37.416ZM108.698 45.072C108.058 45.072 107.562 44.9 107.21 44.556C106.858 44.212 106.682 43.72 106.682 43.08V37.248H107.834V43.032C107.834 43.376 107.918 43.64 108.086 43.824C108.262 44.008 108.51 44.1 108.83 44.1C109.19 44.1 109.49 44 109.73 43.8L110.09 44.628C109.914 44.78 109.702 44.892 109.454 44.964C109.214 45.036 108.962 45.072 108.698 45.072ZM105.602 39.588V38.64H109.658V39.588H105.602ZM111.483 45V38.64H112.635V45H111.483ZM112.059 37.416C111.835 37.416 111.647 37.344 111.495 37.2C111.351 37.056 111.279 36.88 111.279 36.672C111.279 36.456 111.351 36.276 111.495 36.132C111.647 35.988 111.835 35.916 112.059 35.916C112.283 35.916 112.467 35.988 112.611 36.132C112.763 36.268 112.839 36.44 112.839 36.648C112.839 36.864 112.767 37.048 112.623 37.2C112.479 37.344 112.291 37.416 112.059 37.416ZM117.558 45.072C116.918 45.072 116.35 44.932 115.854 44.652C115.358 44.372 114.966 43.988 114.678 43.5C114.39 43.004 114.246 42.444 114.246 41.82C114.246 41.188 114.39 40.628 114.678 40.14C114.966 39.652 115.358 39.272 115.854 39C116.35 38.72 116.918 38.58 117.558 38.58C118.19 38.58 118.754 38.72 119.25 39C119.754 39.272 120.146 39.652 120.426 40.14C120.714 40.62 120.858 41.18 120.858 41.82C120.858 42.452 120.714 43.012 120.426 43.5C120.146 43.988 119.754 44.372 119.25 44.652C118.754 44.932 118.19 45.072 117.558 45.072ZM117.558 44.064C117.966 44.064 118.33 43.972 118.65 43.788C118.978 43.604 119.234 43.344 119.418 43.008C119.602 42.664 119.694 42.268 119.694 41.82C119.694 41.364 119.602 40.972 119.418 40.644C119.234 40.308 118.978 40.048 118.65 39.864C118.33 39.68 117.966 39.588 117.558 39.588C117.15 39.588 116.786 39.68 116.466 39.864C116.146 40.048 115.89 40.308 115.698 40.644C115.506 40.972 115.41 41.364 115.41 41.82C115.41 42.268 115.506 42.664 115.698 43.008C115.89 43.344 116.146 43.604 116.466 43.788C116.786 43.972 117.15 44.064 117.558 44.064ZM125.847 38.58C126.367 38.58 126.823 38.68 127.215 38.88C127.615 39.08 127.927 39.384 128.151 39.792C128.375 40.2 128.487 40.716 128.487 41.34V45H127.335V41.472C127.335 40.856 127.183 40.392 126.879 40.08C126.583 39.768 126.163 39.612 125.619 39.612C125.211 39.612 124.855 39.692 124.551 39.852C124.247 40.012 124.011 40.248 123.843 40.56C123.683 40.872 123.603 41.26 123.603 41.724V45H122.451V38.64H123.555V40.356L123.375 39.9C123.583 39.484 123.903 39.16 124.335 38.928C124.767 38.696 125.271 38.58 125.847 38.58Z" fill="#27187E"/>
<path d="M276.189 13.2084C276.189 12.7084 276.369 12.2784 276.719 11.9284C277.079 11.5684 277.499 11.3984 277.999 11.3984C278.489 11.3984 278.919 11.5784 279.269 11.9284C279.619 12.2884 279.799 12.7084 279.799 13.2084C279.799 13.7084 279.619 14.1384 279.269 14.4984C278.919 14.8584 278.489 15.0384 277.999 15.0384C277.509 15.0384 277.079 14.8584 276.719 14.4984C276.359 14.1384 276.189 13.7084 276.189 13.2084ZM277.069 13.2084C277.069 13.4684 277.159 13.6884 277.339 13.8784C277.529 14.0684 277.749 14.1584 278.009 14.1584C278.269 14.1584 278.489 14.0684 278.679 13.8784C278.869 13.6884 278.959 13.4684 278.959 13.2084C278.962 13.0848 278.939 12.9621 278.891 12.8483C278.842 12.7344 278.77 12.6322 278.679 12.5484C278.502 12.3701 278.261 12.2694 278.009 12.2684C277.749 12.2684 277.529 12.3584 277.339 12.5384C277.159 12.7184 277.069 12.9384 277.069 13.2084Z" fill="#27187E"/>
</svg>
