<svg width="18" height="18" viewBox="0 0 18 18" fill="none" xmlns="http://www.w3.org/2000/svg">
<circle cx="9" cy="9" r="8.8" fill="#F2F4FF" stroke="#F69230" stroke-width="0.4"/>
<path d="M10.25 12.75C9.43056 12.75 8.70139 12.5174 8.0625 12.0521C7.42361 11.5868 6.97222 10.9861 6.70833 10.25H5.25V9.41667H6.52083C6.5 9.25 6.49139 9.09556 6.495 8.95333C6.49861 8.81111 6.50722 8.68778 6.52083 8.58333H5.25V7.75H6.70833C6.97222 7.01389 7.42361 6.41319 8.0625 5.94792C8.70139 5.48264 9.43056 5.25 10.25 5.25C10.7292 5.25 11.1824 5.33514 11.6096 5.50542C12.0368 5.67569 12.4169 5.91 12.75 6.20833L12.1563 6.79167C11.8993 6.56944 11.6094 6.39583 11.2867 6.27083C10.9639 6.14583 10.6183 6.08333 10.25 6.08333C9.65972 6.08333 9.13194 6.23792 8.66667 6.54708C8.20139 6.85625 7.85069 7.25722 7.61458 7.75H10.25V8.58333H7.36458C7.33681 8.77083 7.32639 8.93583 7.33333 9.07833C7.34028 9.22083 7.35069 9.33361 7.36458 9.41667H10.25V10.25H7.61458C7.85069 10.7431 8.20139 11.1442 8.66667 11.4533C9.13194 11.7625 9.65972 11.9169 10.25 11.9167C10.6181 11.9167 10.9636 11.8542 11.2867 11.7292C11.6097 11.6042 11.8996 11.4306 12.1563 11.2083L12.75 11.7917C12.4167 12.0903 12.0364 12.3247 11.6092 12.495C11.1819 12.6653 10.7289 12.7503 10.25 12.75Z" fill="#F69230"/>
</svg>
