<svg width="22" height="18" viewBox="0 0 22 18" fill="none" xmlns="http://www.w3.org/2000/svg">
<path d="M0 9C0.94 3.88 5.426 0 10.818 0C16.21 0 20.696 3.88 21.637 9C20.697 14.12 16.21 18 10.818 18C5.426 18 0.94 14.12 0 9ZM10.818 14C12.1441 14 13.4159 13.4732 14.3535 12.5355C15.2912 11.5979 15.818 10.3261 15.818 9C15.818 7.67392 15.2912 6.40215 14.3535 5.46447C13.4159 4.52678 12.1441 4 10.818 4C9.49192 4 8.22015 4.52678 7.28247 5.46447C6.34478 6.40215 5.818 7.67392 5.818 9C5.818 10.3261 6.34478 11.5979 7.28247 12.5355C8.22015 13.4732 9.49192 14 10.818 14ZM10.818 12C10.0224 12 9.25929 11.6839 8.69668 11.1213C8.13407 10.5587 7.818 9.79565 7.818 9C7.818 8.20435 8.13407 7.44129 8.69668 6.87868C9.25929 6.31607 10.0224 6 10.818 6C11.6136 6 12.3767 6.31607 12.9393 6.87868C13.5019 7.44129 13.818 8.20435 13.818 9C13.818 9.79565 13.5019 10.5587 12.9393 11.1213C12.3767 11.6839 11.6136 12 10.818 12Z" fill="#27187E" fill-opacity="0.8"/>
</svg>
