<svg width="10" height="12" viewBox="0 0 10 12" fill="none" xmlns="http://www.w3.org/2000/svg">
<path d="M0.500001 10.6492L0.500001 11.8731C0.500001 11.9792 0.645588 12.0377 0.743907 11.9728L9.26741 6.39819C9.33983 6.35103 9.39843 6.29064 9.43874 6.22163C9.47905 6.15263 9.5 6.07682 9.5 6C9.5 5.92318 9.47905 5.84737 9.43874 5.77837C9.39843 5.70936 9.33983 5.64897 9.26741 5.60181L0.743906 0.0271719C0.643697 -0.0377418 0.5 0.0208386 0.5 0.126917L0.5 1.35077C0.5 1.42835 0.543487 1.50276 0.615335 1.55026L7.42204 5.99921L0.615335 10.4497C0.543487 10.4972 0.500001 10.5716 0.500001 10.6492Z" fill="#F69230"/>
</svg>
