<svg width="26" height="25" viewBox="0 0 26 25" fill="none" xmlns="http://www.w3.org/2000/svg">
<path fill-rule="evenodd" clip-rule="evenodd" d="M13.4738 23.2579L13.4628 23.2599L13.3918 23.2949L13.3718 23.2989L13.3578 23.2949L13.2868 23.2599C13.2761 23.2566 13.2681 23.2583 13.2628 23.2649L13.2588 23.2749L13.2418 23.7029L13.2468 23.7229L13.2568 23.7359L13.3608 23.8099L13.3758 23.8139L13.3878 23.8099L13.4918 23.7359L13.5038 23.7199L13.5078 23.7029L13.4908 23.2759C13.4881 23.2653 13.4825 23.2593 13.4738 23.2579ZM13.7388 23.1449L13.7258 23.1469L13.5408 23.2399L13.5308 23.2499L13.5278 23.2609L13.5458 23.6909L13.5508 23.7029L13.5588 23.7099L13.7598 23.8029C13.7725 23.8063 13.7821 23.8036 13.7888 23.7949L13.7928 23.7809L13.7588 23.1669C13.7555 23.1549 13.7488 23.1476 13.7388 23.1449ZM13.0238 23.1469C13.0194 23.1443 13.0141 23.1434 13.0091 23.1445C13.0041 23.1456 12.9996 23.1487 12.9968 23.1529L12.9908 23.1669L12.9568 23.7809C12.9575 23.7929 12.9631 23.8009 12.9738 23.8049L12.9888 23.8029L13.1898 23.7099L13.1998 23.7019L13.2038 23.6909L13.2208 23.2609L13.2178 23.2489L13.2078 23.2389L13.0238 23.1469Z" fill="#FF8600"/>
<path fill-rule="evenodd" clip-rule="evenodd" d="M15.0918 17.776C15.6117 17.5161 16.182 17.3726 16.7629 17.3555C17.3439 17.3384 17.9216 17.4481 18.4558 17.677L18.6698 17.777L21.3278 19.105C21.5561 19.219 21.7322 19.416 21.8201 19.6556C21.9079 19.8952 21.9008 20.1593 21.8002 20.3938C21.6996 20.6284 21.5131 20.8156 21.279 20.9171C21.0449 21.0187 20.7808 21.0268 20.5408 20.94L20.4338 20.894L17.7748 19.565C17.5255 19.4403 17.2528 19.3692 16.9744 19.3561C16.6959 19.343 16.4178 19.3883 16.1578 19.489L15.9858 19.565L14.6698 20.224C14.1498 20.4839 13.5793 20.6273 12.9981 20.6442C12.417 20.6612 11.8391 20.5512 11.3048 20.322L11.0918 20.224L9.77483 19.565C9.52548 19.4403 9.25283 19.3692 8.97436 19.3561C8.6959 19.343 8.41777 19.3883 8.15783 19.489L7.98583 19.565L5.32783 20.895C5.09948 21.0105 4.83556 21.034 4.59038 20.9608C4.34519 20.8876 4.13741 20.7231 4.00979 20.5013C3.88218 20.2796 3.84444 20.0173 3.90434 19.7685C3.96425 19.5197 4.11724 19.3034 4.33183 19.164L4.43383 19.105L7.09183 17.776C7.61169 17.5161 8.18195 17.3726 8.76291 17.3555C9.34387 17.3384 9.92158 17.4481 10.4558 17.677L10.6698 17.777L11.9858 18.435C12.2353 18.5598 12.5081 18.631 12.7868 18.6441C13.0654 18.6572 13.3438 18.6119 13.6038 18.511L13.7748 18.435L15.0918 17.776ZM13.8808 2C14.146 2 14.4004 2.10536 14.5879 2.29289C14.7755 2.48043 14.8808 2.73478 14.8808 3V4.32L18.2098 4.874C18.6766 4.95209 19.1006 5.1932 19.4064 5.55446C19.7122 5.91572 19.8799 6.37371 19.8798 6.847V10.279L21.9398 10.965C22.1039 11.0197 22.2548 11.1079 22.383 11.224C22.5113 11.34 22.614 11.4814 22.6848 11.6392C22.7556 11.7971 22.7928 11.9678 22.7942 12.1408C22.7956 12.3137 22.7611 12.4851 22.6928 12.644L20.5238 17.704L18.6698 16.776C18.1144 16.4982 17.5019 16.3536 16.8808 16.3536C16.2598 16.3536 15.6473 16.4982 15.0918 16.776L13.7748 17.435C13.4971 17.5739 13.1908 17.6462 12.8803 17.6462C12.5698 17.6462 12.2636 17.5739 11.9858 17.435L10.6698 16.776C10.1144 16.4982 9.50187 16.3536 8.88083 16.3536C8.2598 16.3536 7.64729 16.4982 7.09183 16.776L5.82183 17.412L3.16383 12.761C3.07208 12.6004 3.0171 12.4215 3.00286 12.2371C2.98862 12.0527 3.01546 11.8675 3.08147 11.6947C3.14747 11.522 3.25098 11.366 3.38455 11.2381C3.51811 11.1102 3.67839 11.0135 3.85383 10.955L5.88083 10.279V6.847C5.88073 6.37371 6.04849 5.91572 6.35426 5.55446C6.66004 5.1932 7.08403 4.95209 7.55083 4.874L10.8808 4.32V3C10.8808 2.73478 10.9862 2.48043 11.1737 2.29289C11.3613 2.10536 11.6156 2 11.8808 2H13.8808ZM12.8808 6.014L7.88083 6.847V9.613L12.2478 8.157C12.6584 8.02014 13.1023 8.02014 13.5128 8.157L17.8808 9.613V6.847L12.8808 6.014Z" fill="#FF8600"/>
</svg>
